<?xml version="1.0" encoding="UTF-8" standalone="no"?>
<!-- Created with Inkscape (http://www.inkscape.org/) -->

<svg
   width="100mm"
   height="100mm"
   viewBox="0 0 100 100"
   version="1.1"
   id="svg1"
   inkscape:version="1.4 (e7c3feb1, 2024-10-09)"
   sodipodi:docname="iohub.svg"
   xmlns:inkscape="http://www.inkscape.org/namespaces/inkscape"
   xmlns:sodipodi="http://sodipodi.sourceforge.net/DTD/sodipodi-0.dtd"
   xmlns="http://www.w3.org/2000/svg"
   xmlns:svg="http://www.w3.org/2000/svg">
  <sodipodi:namedview
     id="namedview1"
     pagecolor="#505050"
     bordercolor="#ffffff"
     borderopacity="1"
     inkscape:showpageshadow="0"
     inkscape:pageopacity="0"
     inkscape:pagecheckerboard="1"
     inkscape:deskcolor="#505050"
     inkscape:document-units="mm"
     inkscape:zoom="1.701837"
     inkscape:cx="49.358428"
     inkscape:cy="159.23969"
     inkscape:window-width="2560"
     inkscape:window-height="1387"
     inkscape:window-x="0"
     inkscape:window-y="25"
     inkscape:window-maximized="0"
     showgrid="true"
     inkscape:current-layer="layer1">
    <inkscape:grid
       id="grid23"
       units="mm"
       originx="0"
       originy="0"
       spacingx="1"
       spacingy="1"
       empcolor="#0099e5"
       empopacity="0.30196078"
       color="#0099e5"
       opacity="0.14901961"
       empspacing="5"
       enabled="true"
       visible="true" />
  </sodipodi:namedview>
  <defs
     id="defs1" />
  <g
     inkscape:label="Layer 1"
     inkscape:groupmode="layer"
     id="layer1">
    <path
       d="M 5,77.500002 49.999999,92.500001 95.000001,77.500002 49.999999,62.499993 Z"
       style="fill:#cccccc;fill-opacity:1;fill-rule:evenodd;stroke:#ffffff;stroke-width:1;stroke-linejoin:round;stroke-opacity:1;stroke-dasharray:none"
       id="path19" />
    <path
       d="M 49.999999,10 95.000001,24.999996 V 77.500002 L 49.999999,62.499993 Z"
       style="fill:#e5e5e5;fill-opacity:1;fill-rule:evenodd;stroke:#ffffff;stroke-width:1;stroke-linejoin:round;stroke-opacity:1;stroke-dasharray:none"
       id="path17" />
    <path
       d="M 5,24.999996 V 77.500002 L 49.999999,62.499993 V 10 Z"
       style="fill:#b2b2b2;fill-opacity:1;fill-rule:evenodd;stroke:#ffffff;stroke-width:1;stroke-linejoin:round;stroke-opacity:1;stroke-dasharray:none"
       id="path18" />
    <g
       id="g1348"
       transform="translate(0.02170023,97.950928)">
      <path
         d="m 66.2788,-42.015 c 1.6034,-1.2143 3.6595,-2.164 5.7309,-2.5205 0.3773,-0.073 0.7433,-0.1222 1.0957,-0.1513 3.7959,-0.0937 6.8456,-3.1956 6.8456,-7.0105 0,-3.8149 -3.144,-7.0134 -7.0212,-7.0134 -0.0273,0 -0.0552,0 -0.0825,0.0012 -0.0177,0 -0.035,-0.0012 -0.0522,-0.0012 -2.9879,0 -5.3667,1.4456 -6.5537,4.4917 -0.3144,0.964 -0.366,1.7743 -0.3322,2.5828 0.0024,0.2954 0.0232,0.5861 0.0611,0.8714 0.0742,0.8353 0.1726,1.7233 0.1139,2.8225 -0.3879,5.1028 -5.7594,8.936 -10.2956,8.936 -0.0534,0 0.0492,0 0,0 -0.1216,0 -0.2355,0.0012 -0.3554,-0.0035 -0.1026,-0.0065 -0.2058,-0.0118 -0.3096,-0.0142 -2.8741,-0.2776 -5.4706,-1.4966 -7.472,-3.3415 1.8229,-1.4462 4.1305,-2.3105 6.6403,-2.3105 0.0836,0 0.1667,0 0.2497,0.0024 0.1394,0.0077 0.2806,0.013 0.4224,0.013 3.8772,0 7.0212,-3.1404 7.0212,-7.0135 0,-0.3161 -0.0208,-0.6252 -0.0611,-0.9301 L 61.9158,-52.66 c -0.0243,-0.296 -0.0226,-0.5445 -0.0226,-0.8476 0,-5.884 4.6739,-10.6777 10.5164,-10.8794 h 0.0534 c 0.0937,0 0.1678,-0.0024 0.2426,-0.003 0.0759,-0.0024 0.153,-0.0035 0.2515,-0.0035 3.8772,0 7.0212,-3.1404 7.0212,-7.0135 0,-3.873 -3.1446,-7.0105 -7.0218,-7.0105 -2.9963,0 -5.5536,1.8734 -6.5614,4.5125 h -0.0018 l -0.0071,0.0238 c -0.0267,0.0705 -0.0522,0.1429 -0.0777,0.2147 -0.3797,0.9224 -1.2891,1.5738 -2.3503,1.5738 -1.0613,0 -2.0151,-0.6816 -2.377,-1.6402 -0.9687,-2.7187 -3.5651,-4.6632 -6.6172,-4.6632 -3.052,0 -5.5399,1.8638 -6.5537,4.4911 h -0.0041 c -0.0065,0.022 -0.0136,0.0433 -0.0202,0.0653 -0.0178,0.0492 -0.0356,0.0967 -0.0522,0.1447 -0.3707,0.9343 -1.2837,1.5946 -2.3503,1.5946 -1.0665,0 -2.0335,-0.7006 -2.3817,-1.6788 -0.9817,-2.6938 -3.5669,-4.6175 -6.6023,-4.6175 -3.8772,0 -7.0212,3.1392 -7.0212,7.0123 0,3.873 3.1434,7.0122 7.0212,7.0122 2.8687,0 5.3352,-1.7185 6.425,-4.1803 h 5e-4 c 0.426,-0.8809 1.2879,-1.5162 2.3462,-1.5162 1.1294,0 2.0869,0.7136 2.4167,1.7001 0.0896,0.2681 0.0694,0.5481 0.0658,0.7385 -0.3879,5.104 -4.7854,8.9361 -10.142,8.9361 h -0.1531 c -0.1774,0.0012 -0.3363,0.0024 -0.5238,-0.0107 h -0.0385 c -0.1104,-0.0053 -0.2219,-0.0077 -0.334,-0.0077 -3.8784,0.0012 -7.0212,3.1404 -7.0212,7.0135 0,3.873 3.1434,7.0122 7.0212,7.0122 0.5113,0 1.0096,-0.0546 1.4889,-0.1578 0.3026,-0.051 0.7564,-0.0937 1.2701,-0.0587 0.3636,0.035 0.7528,0.1056 1.1496,0.2331 1.4136,0.5185 2.6914,1.3169 3.7669,2.3278 -1.8556,1.9955 -4.3832,3.2644 -7.3516,3.3267 -0.1833,0 -0.2563,-0.0101 -0.3862,-0.0101 -3.8772,0 -7.0212,3.1392 -7.0212,7.0122 0,3.8731 3.1434,7.0135 7.0212,7.0135 2.9049,0 5.3982,-1.7624 6.4653,-4.2764 h 0.0018 c 0.3951,-0.9806 1.3733,-1.6752 2.5164,-1.6752 0.9456,0 1.7761,0.4757 2.2589,1.1935 0.9403,2.7667 3.5622,4.7575 6.6493,4.7575 0.0035,0 0.0071,-0.0012 0.0112,-0.0012 0.0202,0 0.0404,0.0012 0.0605,0.0012 2.9406,0 5.4587,-1.8057 6.5045,-4.3678 0.4176,-0.9325 1.3697,-1.5838 2.4778,-1.5838 1.1082,0 2.1219,0.6946 2.5164,1.6752 h 6e-4 c 1.0672,2.5128 3.5604,4.2764 6.4653,4.2764 3.8772,0 7.0212,-3.1404 7.0212,-7.0135 0,-3.873 -3.144,-7.0122 -7.0212,-7.0122 -3.0235,0 -5.4586,1.792 -6.5887,4.5854 -0.433,0.8614 -1.34,1.4552 -2.3888,1.4552 -0.9919,0 -1.8556,-0.5315 -2.3123,-1.3181 0.1032,-0.6472 0.2444,-1.3288 0.4306,-2.0501 0.8216,-2.4061 2.1611,-4.2308 4.2088,-5.664 z m 6.651,-13.8994 c 2.3319,0 4.2224,1.8888 4.2224,4.2177 0,2.3289 -1.8905,4.2177 -4.2224,4.2177 -2.3319,0 -4.2224,-1.8888 -4.2224,-4.2177 0,-2.3289 1.8905,-4.2177 4.2224,-4.2177 z M 54.9652,-75.601 c 2.3319,0 4.2224,1.8887 4.2224,4.2182 0,2.3295 -1.8905,4.2177 -4.2224,4.2177 -2.3319,0 -4.2224,-1.8887 -4.2224,-4.2177 0,-2.3289 1.8905,-4.2182 4.2224,-4.2182 z m -17.9646,28.1226 c -2.3319,0 -4.2224,-1.8888 -4.2224,-4.2177 0,-2.3289 1.8905,-4.2189 4.2224,-4.2189 2.3319,0 4.2224,1.8888 4.2224,4.2189 0,2.3301 -1.8905,4.2177 -4.2224,4.2177 z m 7.2395,-8.5593 c 0.8215,-2.4049 2.161,-4.2296 4.2087,-5.6628 1.6035,-1.2155 3.6595,-2.164 5.731,-2.5205 0.4443,-0.086 0.875,-0.1418 1.2837,-0.1655 2.7204,-0.1916 5.0126,-1.9291 6.002,-4.3393 0.3607,-0.7907 1.171,-1.3418 2.1136,-1.3418 0.999,0 1.8502,0.6199 2.1735,1.4865 0.1032,0.3441 0.0694,0.8442 0.0475,1.0862 -0.732,4.9841 -5.0369,8.8097 -10.2375,8.8097 -0.0896,0 -0.178,0 -0.267,-0.0035 h -0.0308 c -0.0647,0 -0.111,0.0012 -0.1572,0.0024 -0.0433,0.0012 -0.0872,0.0012 -0.1418,0.0012 -3.8772,0 -7.0212,3.1404 -7.0212,7.0134 0,0.3192 0.022,0.633 0.0629,0.9403 0.0113,0.0925 0.0202,0.1821 0.0261,0.2657 0.0059,0.1133 0.0095,0.2266 0.0119,0.3411 0,0.1827 -0.0095,0.3269 -0.0184,0.4206 -0.2426,2.0501 -0.9153,3.9727 -1.9416,5.6064 -0.2604,-0.3476 -0.503,-0.7083 -0.7272,-1.0803 -1.3982,-2.1699 -2.5271,-5.4035 -1.1176,-10.8586 h -6e-4 z m 4.4181,21.4063 c -0.2912,1.1841 -1.8786,1.6841 -2.581,1.6841 -0.7023,0 -2.2898,-0.5012 -2.5798,-1.6841 -0.4823,-1.9605 1.5571,-5.028 2.5798,-6.2096 1.0233,1.1816 3.0621,4.2491 2.581,6.2096 z m 6.2406,6.8361 c -2.3011,-0.0362 -4.1566,-1.9095 -4.1566,-4.2165 0,-2.3069 1.8543,-4.1803 4.1554,-4.2165 2.3004,0.0368 4.1548,1.9107 4.1548,4.2165 0,2.3058 -1.8538,4.1792 -4.1542,4.2165 z"
         style="fill:#000000;fill-opacity:1;stroke-width:0.264583px"
         id="path1337" />
      <path
         d="m 66.1963,-41.9322 c 1.6035,-1.2143 3.6595,-2.164 5.731,-2.5206 0.3773,-0.0729 0.7433,-0.1222 1.0956,-0.1512 3.7959,-0.0938 6.8456,-3.1956 6.8456,-7.0105 0,-3.8149 -3.144,-7.0135 -7.0212,-7.0135 -0.0273,0 -0.0551,0 -0.0824,0.0012 -0.0178,0 -0.035,-0.0012 -0.0522,-0.0012 -2.988,0 -5.3667,1.4457 -6.5537,4.4918 -0.3144,0.9639 -0.3661,1.7742 -0.3322,2.5828 0.0024,0.2954 0.0231,0.5861 0.0611,0.8714 0.0741,0.8352 0.1726,1.7233 0.1139,2.8225 -0.388,5.1027 -5.7595,8.936 -10.2957,8.936 -0.0534,0 0.0492,0 0,0 -0.1216,0 -0.2355,0.0012 -0.3553,-0.0035 -0.1027,-0.0065 -0.2059,-0.0119 -0.3097,-0.0142 -2.8741,-0.2777 -5.4705,-1.4967 -7.472,-3.3416 1.8229,-1.4462 4.1305,-2.3105 6.6403,-2.3105 0.0837,0 0.1667,0 0.2498,0.0024 0.1394,0.0077 0.2806,0.0131 0.4223,0.0131 3.8772,0 7.0212,-3.1405 7.0212,-7.0135 0,-0.3162 -0.0208,-0.6252 -0.0611,-0.9301 l -0.0083,-0.0558 c -0.0243,-0.296 -0.0225,-0.5446 -0.0225,-0.8477 0,-5.884 4.6738,-10.6777 10.5163,-10.8794 h 0.0534 c 0.0937,0 0.1679,-0.0024 0.2426,-0.003 0.0759,-0.0024 0.1531,-0.0035 0.2515,-0.0035 3.8772,0 7.0212,-3.1404 7.0212,-7.0134 0,-3.8731 -3.1446,-7.0105 -7.0218,-7.0105 -2.9962,0 -5.5535,1.8733 -6.5614,4.5125 h -0.0018 l -0.0071,0.0237 c -0.0267,0.0706 -0.0522,0.143 -0.0777,0.2148 -0.3797,0.9224 -1.289,1.5737 -2.3503,1.5737 -1.0612,0 -2.0151,-0.6816 -2.377,-1.6402 -0.9687,-2.7186 -3.5651,-4.6632 -6.6172,-4.6632 -3.052,0 -5.5399,1.8639 -6.5537,4.4912 h -0.0041 c -0.0065,0.0219 -0.0136,0.0433 -0.0201,0.0652 -0.0178,0.0493 -0.0356,0.0967 -0.0522,0.1448 -0.3708,0.9343 -1.2837,1.5945 -2.3503,1.5945 -1.0666,0 -2.0335,-0.7006 -2.3817,-1.6788 -0.9818,-2.6937 -3.567,-4.6175 -6.6024,-4.6175 -3.8772,0 -7.0212,3.1393 -7.0212,7.0123 0,3.873 3.1434,7.0123 7.0212,7.0123 2.8687,0 5.3353,-1.7185 6.425,-4.1803 h 6e-4 c 0.4259,-0.8809 1.2878,-1.5163 2.3461,-1.5163 1.1295,0 2.0869,0.7137 2.4167,1.7002 0.0896,0.2681 0.0694,0.5481 0.0659,0.7385 -0.388,5.1039 -4.7854,8.936 -10.1421,8.936 h -0.1531 c -0.1773,0.0012 -0.3363,0.0024 -0.5238,-0.0106 h -0.0385 c -0.1103,-0.0053 -0.2219,-0.0077 -0.334,-0.0077 -3.8784,0.0012 -7.0212,3.1404 -7.0212,7.0134 0,3.873 3.1434,7.0123 7.0212,7.0123 0.5114,0 1.0097,-0.0546 1.489,-0.1578 0.3025,-0.051 0.7563,-0.0937 1.27,-0.0587 0.3636,0.035 0.7528,0.1056 1.1496,0.2331 1.4136,0.5185 2.6914,1.3169 3.7669,2.3277 -1.8556,1.9956 -4.3832,3.2644 -7.3516,3.3267 -0.1833,0 -0.2563,-0.0101 -0.3862,-0.0101 -3.8772,0 -7.0211,3.1393 -7.0211,7.0123 0,3.873 3.1434,7.0135 7.0211,7.0135 2.905,0 5.3982,-1.7625 6.4654,-4.2765 h 0.0018 c 0.395,-0.9805 1.3732,-1.6752 2.5163,-1.6752 0.9456,0 1.7761,0.4758 2.259,1.1936 0.9402,2.7667 3.5622,4.7575 6.6492,4.7575 0.0035,0 0.0071,-0.0012 0.0113,-0.0012 0.0201,0 0.0403,0.0012 0.0605,0.0012 2.9405,0 5.4586,-1.8058 6.5045,-4.3678 0.4176,-0.9325 1.3697,-1.5839 2.4778,-1.5839 1.1081,0 2.1219,0.6947 2.5164,1.6753 h 5e-4 c 1.0672,2.5128 3.5604,4.2764 6.4654,4.2764 3.8772,0 7.0211,-3.1405 7.0211,-7.0135 0,-3.873 -3.1439,-7.0123 -7.0211,-7.0123 -3.0236,0 -5.4587,1.7921 -6.5888,4.5855 -0.433,0.8613 -1.34,1.4551 -2.3888,1.4551 -0.9918,0 -1.8555,-0.5315 -2.3123,-1.3181 0.1032,-0.6472 0.2444,-1.3287 0.4307,-2.0501 0.8216,-2.406 2.161,-4.2307 4.2088,-5.6639 z m 6.651,-13.8994 c 2.3319,0 4.2225,1.8888 4.2225,4.2177 0,2.3289 -1.8906,4.2177 -4.2225,4.2177 -2.3319,0 -4.2224,-1.8888 -4.2224,-4.2177 0,-2.3289 1.8905,-4.2177 4.2224,-4.2177 z M 54.8827,-75.5183 c 2.3319,0 4.2225,1.8888 4.2225,4.2183 0,2.3295 -1.8906,4.2177 -4.2225,4.2177 -2.3319,0 -4.2224,-1.8888 -4.2224,-4.2177 0,-2.3289 1.8905,-4.2183 4.2224,-4.2183 z m -17.9646,28.1227 c -2.3319,0 -4.2224,-1.8888 -4.2224,-4.2177 0,-2.329 1.8905,-4.2189 4.2224,-4.2189 2.3319,0 4.2224,1.8888 4.2224,4.2189 0,2.3301 -1.8905,4.2177 -4.2224,4.2177 z m 7.2395,-8.5594 c 0.8216,-2.4048 2.161,-4.2295 4.2088,-5.6627 1.6034,-1.2155 3.6595,-2.164 5.7309,-2.5206 0.4443,-0.086 0.875,-0.1417 1.2837,-0.1655 2.7205,-0.1916 5.0126,-1.9291 6.0021,-4.3392 0.3606,-0.7908 1.1709,-1.3419 2.1136,-1.3419 0.9989,0 1.8502,0.6199 2.1735,1.4866 0.1032,0.3441 0.0694,0.8441 0.0474,1.0862 -0.732,4.9841 -5.0369,8.8096 -10.2375,8.8096 -0.0896,0 -0.178,0 -0.267,-0.0035 h -0.0308 c -0.0647,0 -0.1109,0.0012 -0.1572,0.0024 -0.0433,0.0012 -0.0872,0.0012 -0.1418,0.0012 -3.8772,0 -7.0211,3.1405 -7.0211,7.0135 0,0.3191 0.0219,0.6329 0.0628,0.9402 0.0113,0.0926 0.0202,0.1821 0.0261,0.2658 0.0059,0.1133 0.0095,0.2266 0.0119,0.3411 0,0.1827 -0.0095,0.3268 -0.0184,0.4206 -0.2426,2.0501 -0.9153,3.9726 -1.9415,5.6063 -0.2605,-0.3476 -0.5031,-0.7083 -0.7273,-1.0802 -1.3982,-2.1699 -2.5271,-5.4035 -1.1176,-10.8586 h -6e-4 z m 4.4182,21.4064 c -0.2913,1.184 -1.8787,1.6841 -2.5811,1.6841 -0.7023,0 -2.2897,-0.5013 -2.5798,-1.6841 -0.4823,-1.9606 1.5572,-5.028 2.5798,-6.2097 1.0233,1.1817 3.0622,4.2491 2.5811,6.2097 z m 6.2405,6.8361 c -2.3011,-0.0362 -4.1566,-1.9095 -4.1566,-4.2165 0,-2.307 1.8544,-4.1803 4.1554,-4.2165 2.3004,0.0368 4.1548,1.9107 4.1548,4.2165 0,2.3058 -1.8538,4.1791 -4.1542,4.2165 z"
         style="fill:#000001;fill-opacity:1;stroke-width:0.264583px"
         id="path1338" />
      <path
         d="m 65.9489,-41.684 c 1.6034,-1.2143 3.6595,-2.164 5.731,-2.5205 0.3772,-0.0729 0.7433,-0.1222 1.0956,-0.1513 3.7959,-0.0937 6.8456,-3.1955 6.8456,-7.0104 0,-3.8149 -3.144,-7.0135 -7.0212,-7.0135 -0.0273,0 -0.0551,0 -0.0824,0.0012 -0.0178,0 -0.035,-0.0012 -0.0522,-0.0012 -2.988,0 -5.3668,1.4456 -6.5538,4.4917 -0.3144,0.964 -0.366,1.7743 -0.3322,2.5829 0.0024,0.2954 0.0232,0.586 0.0611,0.8714 0.0742,0.8352 0.1727,1.7232 0.1139,2.8224 -0.3879,5.1028 -5.7594,8.9361 -10.2956,8.9361 -0.0534,0 0.0492,0 0,0 -0.1216,0 -0.2355,0.0012 -0.3553,-0.0035 -0.1027,-0.0065 -0.2059,-0.0119 -0.3097,-0.0143 -2.8741,-0.2776 -5.4705,-1.4966 -7.472,-3.3415 1.8229,-1.4462 4.1305,-2.3105 6.6403,-2.3105 0.0837,0 0.1667,0 0.2498,0.0024 0.1394,0.0077 0.2806,0.013 0.4223,0.013 3.8772,0 7.0212,-3.1404 7.0212,-7.0134 0,-0.3162 -0.0208,-0.6253 -0.0611,-0.9302 l -0.0083,-0.0557 c -0.0243,-0.296 -0.0225,-0.5446 -0.0225,-0.8477 0,-5.884 4.6738,-10.6777 10.5163,-10.8794 h 0.0534 c 0.0937,0 0.1679,-0.0024 0.2426,-0.003 0.0759,-0.0024 0.153,-0.0035 0.2515,-0.0035 3.8772,0 7.0212,-3.1404 7.0212,-7.0135 0,-3.873 -3.1446,-7.0105 -7.0218,-7.0105 -2.9962,0 -5.5536,1.8734 -6.5614,4.5126 h -0.0018 l -0.0071,0.0237 c -0.0267,0.0706 -0.0522,0.1429 -0.0777,0.2147 -0.3797,0.9225 -1.2891,1.5738 -2.3503,1.5738 -1.0612,0 -2.0151,-0.6816 -2.377,-1.6402 -0.9687,-2.7187 -3.5651,-4.6632 -6.6172,-4.6632 -3.052,0 -5.5399,1.8639 -6.5537,4.4912 h -0.0041 c -0.0065,0.0219 -0.0136,0.0433 -0.0202,0.0652 -0.0177,0.0492 -0.0356,0.0967 -0.0522,0.1447 -0.3707,0.9343 -1.2837,1.5946 -2.3502,1.5946 -1.0666,0 -2.0335,-0.7006 -2.3818,-1.6788 -0.9817,-2.6937 -3.5669,-4.6175 -6.6023,-4.6175 -3.8772,0 -7.0212,3.1392 -7.0212,7.0123 0,3.873 3.1434,7.0122 7.0212,7.0122 2.8687,0 5.3353,-1.7185 6.425,-4.1803 h 6e-4 c 0.4259,-0.8809 1.2878,-1.5162 2.3461,-1.5162 1.1294,0 2.0869,0.7136 2.4167,1.7001 0.0896,0.2682 0.0694,0.5482 0.0659,0.7386 -0.388,5.1039 -4.7854,8.936 -10.1421,8.936 h -0.1531 c -0.1773,0.0012 -0.3363,0.0024 -0.5238,-0.0107 h -0.0385 c -0.1104,-0.0053 -0.2219,-0.0077 -0.334,-0.0077 -3.8784,0.0012 -7.0212,3.1404 -7.0212,7.0135 0,3.873 3.1434,7.0123 7.0212,7.0123 0.5114,0 1.0096,-0.0546 1.489,-0.1578 0.3025,-0.0511 0.7563,-0.0938 1.27,-0.0588 0.3636,0.035 0.7528,0.1056 1.1496,0.2332 1.4136,0.5184 2.6914,1.3169 3.7669,2.3277 -1.8556,1.9955 -4.3832,3.2644 -7.3516,3.3267 -0.1833,0 -0.2563,-0.0101 -0.3862,-0.0101 -3.8772,0 -7.0211,3.1392 -7.0211,7.0123 0,3.873 3.1433,7.0134 7.0211,7.0134 2.9049,0 5.3982,-1.7624 6.4654,-4.2764 h 0.0018 c 0.395,-0.9806 1.3732,-1.6752 2.5163,-1.6752 0.9456,0 1.7761,0.4758 2.259,1.1935 0.9402,2.7667 3.5621,4.7575 6.6492,4.7575 0.0035,0 0.0071,-0.0012 0.0113,-0.0012 0.0201,0 0.0403,0.0012 0.0605,0.0012 2.9405,0 5.4586,-1.8057 6.5045,-4.3677 0.4176,-0.9326 1.3697,-1.5839 2.4778,-1.5839 1.1081,0 2.1219,0.6947 2.5163,1.6752 h 6e-4 c 1.0672,2.5128 3.5604,4.2764 6.4654,4.2764 3.8771,0 7.0211,-3.1404 7.0211,-7.0134 0,-3.8731 -3.144,-7.0123 -7.0211,-7.0123 -3.0236,0 -5.4587,1.7921 -6.5888,4.5855 -0.433,0.8613 -1.34,1.4551 -2.3888,1.4551 -0.9918,0 -1.8555,-0.5315 -2.3123,-1.3181 0.1032,-0.6472 0.2444,-1.3288 0.4307,-2.0501 0.8215,-2.4061 2.161,-4.2307 4.2087,-5.6639 z m 6.651,-13.8993 c 2.3319,0 4.2225,1.8887 4.2225,4.2176 0,2.329 -1.8906,4.2177 -4.2225,4.2177 -2.3319,0 -4.2224,-1.8887 -4.2224,-4.2177 0,-2.3289 1.8905,-4.2176 4.2224,-4.2176 z M 54.6353,-75.27 c 2.3319,0 4.2224,1.8887 4.2224,4.2183 0,2.3295 -1.8905,4.2176 -4.2224,4.2176 -2.3319,0 -4.2224,-1.8887 -4.2224,-4.2176 0,-2.329 1.8905,-4.2183 4.2224,-4.2183 z m -17.9646,28.1226 c -2.3319,0 -4.2224,-1.8887 -4.2224,-4.2177 0,-2.3289 1.8905,-4.2188 4.2224,-4.2188 2.3319,0 4.2224,1.8887 4.2224,4.2188 0,2.3301 -1.8905,4.2177 -4.2224,4.2177 z m 7.2395,-8.5593 c 0.8216,-2.4049 2.161,-4.2296 4.2088,-5.6628 1.6034,-1.2154 3.6594,-2.164 5.7309,-2.5205 0.4443,-0.086 0.875,-0.1418 1.2837,-0.1655 2.7204,-0.1916 5.0126,-1.9291 6.0021,-4.3393 0.3606,-0.7907 1.1709,-1.3418 2.1135,-1.3418 0.999,0 1.8502,0.6199 2.1735,1.4866 0.1033,0.344 0.0695,0.8441 0.0475,1.0861 -0.732,4.9841 -5.0369,8.8097 -10.2375,8.8097 -0.0896,0 -0.178,0 -0.267,-0.0035 h -0.0308 c -0.0647,0 -0.1109,0.0012 -0.1572,0.0024 -0.0433,0.0012 -0.0872,0.0012 -0.1418,0.0012 -3.8772,0 -7.0211,3.1404 -7.0211,7.0135 0,0.3191 0.0219,0.6329 0.0628,0.9402 0.0113,0.0925 0.0202,0.1821 0.0261,0.2657 0.0059,0.1133 0.0095,0.2266 0.0119,0.3411 0,0.1827 -0.0095,0.3269 -0.0184,0.4206 -0.2426,2.0501 -0.9153,3.9727 -1.9416,5.6064 -0.2604,-0.3476 -0.503,-0.7083 -0.7272,-1.0802 -1.3982,-2.17 -2.5271,-5.4035 -1.1176,-10.8586 h -6e-4 z m 4.4182,21.4064 c -0.2913,1.184 -1.8787,1.6841 -2.5811,1.6841 -0.7023,0 -2.2897,-0.5013 -2.5798,-1.6841 -0.4823,-1.9606 1.5571,-5.028 2.5798,-6.2097 1.0233,1.1817 3.0622,4.2491 2.5811,6.2097 z m 6.2405,6.836 c -2.3011,-0.0361 -4.1566,-1.9095 -4.1566,-4.2165 0,-2.3069 1.8544,-4.1803 4.1554,-4.2165 2.3004,0.0368 4.1548,1.9108 4.1548,4.2165 0,2.3058 -1.8538,4.1792 -4.1542,4.2165 z"
         style="fill:#000307;fill-opacity:1;stroke-width:0.264583px"
         id="path1339" />
      <path
         d="m 65.5366,-41.2702 c 1.6034,-1.2143 3.6594,-2.164 5.7309,-2.5205 0.3773,-0.073 0.7433,-0.1222 1.0957,-0.1513 3.7959,-0.0937 6.8455,-3.1956 6.8455,-7.0105 0,-3.8149 -3.1439,-7.0134 -7.0211,-7.0134 -0.0273,0 -0.0552,0 -0.0825,0.0012 -0.0178,0 -0.035,-0.0012 -0.0522,-0.0012 -2.988,0 -5.3667,1.4456 -6.5537,4.4917 -0.3144,0.964 -0.366,1.7743 -0.3322,2.5828 0.0024,0.2954 0.0231,0.5861 0.0611,0.8714 0.0741,0.8353 0.1726,1.7233 0.1139,2.8225 -0.388,5.1028 -5.7594,8.9361 -10.2957,8.9361 -0.0534,0 0.0493,0 0,0 -0.1216,0 -0.2355,0.0012 -0.3553,-0.0035 -0.1026,-0.0065 -0.2058,-0.0119 -0.3096,-0.0143 -2.8741,-0.2776 -5.4706,-1.4966 -7.4721,-3.3415 1.823,-1.4462 4.1305,-2.3105 6.6404,-2.3105 0.0836,0 0.1667,0 0.2497,0.0024 0.1394,0.0077 0.2806,0.013 0.4224,0.013 3.8772,0 7.0211,-3.1404 7.0211,-7.0134 0,-0.3162 -0.0207,-0.6253 -0.0611,-0.9302 l -0.0083,-0.0558 c -0.0243,-0.296 -0.0225,-0.5445 -0.0225,-0.8476 0,-5.884 4.6739,-10.6777 10.5163,-10.8794 h 0.0534 c 0.0938,0 0.1679,-0.0024 0.2426,-0.003 0.076,-0.0024 0.1531,-0.0035 0.2516,-0.0035 3.8772,0 7.0211,-3.1404 7.0211,-7.0135 0,-3.873 -3.1445,-7.0105 -7.0217,-7.0105 -2.9963,0 -5.5536,1.8734 -6.5615,4.5125 H 65.651 l -0.0071,0.0238 c -0.0266,0.0706 -0.0522,0.1429 -0.0777,0.2147 -0.3796,0.9224 -1.289,1.5738 -2.3502,1.5738 -1.0613,0 -2.0152,-0.6816 -2.377,-1.6402 -0.9687,-2.7187 -3.5652,-4.6632 -6.6172,-4.6632 -3.0521,0 -5.5399,1.8638 -6.5537,4.4911 H 47.664 c -0.0065,0.022 -0.0137,0.0433 -0.0202,0.0653 -0.0178,0.0492 -0.0356,0.0967 -0.0522,0.1447 -0.3708,0.9343 -1.2837,1.5946 -2.3503,1.5946 -1.0666,0 -2.0335,-0.7006 -2.3817,-1.6788 -0.9818,-2.6938 -3.5669,-4.6175 -6.6024,-4.6175 -3.8772,0 -7.0211,3.1392 -7.0211,7.0123 0,3.873 3.1434,7.0122 7.0211,7.0122 2.8688,0 5.3353,-1.7185 6.425,-4.1803 h 6e-4 c 0.4259,-0.8809 1.2879,-1.5162 2.3461,-1.5162 1.1295,0 2.0869,0.7136 2.4168,1.7001 0.0895,0.2681 0.0694,0.5481 0.0658,0.7385 -0.388,5.104 -4.7854,8.9361 -10.142,8.9361 h -0.1531 c -0.1774,0.0012 -0.3364,0.0024 -0.5238,-0.0107 H 36.654 c -0.1103,-0.0053 -0.2218,-0.0077 -0.3339,-0.0077 -3.8784,0.0012 -7.0212,3.1404 -7.0212,7.0135 0,3.873 3.1434,7.0122 7.0212,7.0122 0.5113,0 1.0096,-0.0545 1.4889,-0.1578 0.3025,-0.051 0.7563,-0.0937 1.2701,-0.0587 0.3636,0.035 0.7527,0.1056 1.1496,0.2331 1.4136,0.5185 2.6914,1.317 3.7668,2.3278 -1.8555,1.9955 -4.3832,3.2644 -7.3516,3.3267 -0.1833,0 -0.2562,-0.0101 -0.3861,-0.0101 -3.8772,0 -7.0212,3.1392 -7.0212,7.0122 0,3.8731 3.1434,7.0135 7.0212,7.0135 2.9049,0 5.3981,-1.7624 6.4653,-4.2764 h 0.0018 c 0.3951,-0.9806 1.3733,-1.6752 2.5164,-1.6752 0.9456,0 1.776,0.4757 2.2589,1.1935 0.9402,2.7667 3.5622,4.7575 6.6492,4.7575 0.0035,0 0.0071,-0.0012 0.0113,-0.0012 0.0202,0 0.0403,0.0012 0.0605,0.0012 2.9405,0 5.4587,-1.8057 6.5045,-4.3678 0.4176,-0.9325 1.3697,-1.5838 2.4778,-1.5838 1.1081,0 2.1219,0.6946 2.5164,1.6752 h 6e-4 c 1.0672,2.5128 3.5604,4.2764 6.4653,4.2764 3.8772,0 7.0212,-3.1404 7.0212,-7.0134 0,-3.8731 -3.144,-7.0123 -7.0212,-7.0123 -3.0235,0 -5.4587,1.7921 -6.5887,4.5855 -0.433,0.8613 -1.3401,1.4551 -2.3888,1.4551 -0.9919,0 -1.8556,-0.5315 -2.3124,-1.3181 0.1033,-0.6472 0.2444,-1.3288 0.4307,-2.0501 0.8216,-2.4061 2.1611,-4.2308 4.2088,-5.664 z m 6.651,-13.8994 c 2.3319,0 4.2224,1.8888 4.2224,4.2177 0,2.3289 -1.8905,4.2177 -4.2224,4.2177 -2.3319,0 -4.2225,-1.8888 -4.2225,-4.2177 0,-2.3289 1.8906,-4.2177 4.2225,-4.2177 z M 54.223,-74.8562 c 2.3319,0 4.2224,1.8887 4.2224,4.2182 0,2.3296 -1.8905,4.2177 -4.2224,4.2177 -2.3319,0 -4.2225,-1.8887 -4.2225,-4.2177 0,-2.3289 1.8906,-4.2182 4.2225,-4.2182 z m -17.9646,28.1226 c -2.3319,0 -4.2225,-1.8888 -4.2225,-4.2177 0,-2.3289 1.8906,-4.2189 4.2225,-4.2189 2.3318,0 4.2224,1.8888 4.2224,4.2189 0,2.3301 -1.8906,4.2177 -4.2224,4.2177 z m 7.2394,-8.5593 c 0.8216,-2.4049 2.1611,-4.2296 4.2088,-5.6628 1.6034,-1.2155 3.6595,-2.164 5.731,-2.5205 0.4443,-0.086 0.8749,-0.1418 1.2837,-0.1655 2.7204,-0.1916 5.0125,-1.9291 6.002,-4.3393 0.3607,-0.7907 1.171,-1.3418 2.1136,-1.3418 0.9989,0 1.8502,0.6199 2.1735,1.4865 0.1032,0.3441 0.0694,0.8442 0.0475,1.0862 -0.7321,4.9841 -5.0369,8.8097 -10.2376,8.8097 -0.0895,0 -0.1779,0 -0.2669,-0.0035 h -0.0309 c -0.0646,0 -0.1109,0.0012 -0.1572,0.0024 -0.0433,0.0012 -0.0872,0.0012 -0.1417,0.0012 -3.8772,0 -7.0212,3.1404 -7.0212,7.0134 0,0.3192 0.022,0.633 0.0629,0.9403 0.0113,0.0925 0.0202,0.1821 0.0261,0.2657 0.0059,0.1133 0.0095,0.2266 0.0118,0.3411 0,0.1827 -0.0095,0.3269 -0.0183,0.4206 -0.2427,2.0501 -0.9154,3.9727 -1.9416,5.6064 -0.2604,-0.3476 -0.503,-0.7083 -0.7273,-1.0803 -1.3982,-2.1699 -2.527,-5.4035 -1.1176,-10.8586 h -6e-4 z m 4.4182,21.4063 c -0.2912,1.1841 -1.8787,1.6841 -2.581,1.6841 -0.7024,0 -2.2898,-0.5012 -2.5799,-1.6841 -0.4822,-1.9605 1.5572,-5.028 2.5799,-6.2096 1.0233,1.1816 3.0621,4.2491 2.581,6.2096 z m 6.2405,6.8361 c -2.301,-0.0362 -4.1566,-1.9095 -4.1566,-4.2165 0,-2.3069 1.8544,-4.1803 4.1554,-4.2165 2.3005,0.0368 4.1548,1.9107 4.1548,4.2165 0,2.3058 -1.8537,4.1792 -4.1542,4.2165 z"
         style="fill:#000811;fill-opacity:1;stroke-width:0.264583px"
         id="path1340" />
      <path
         d="m 64.9593,-40.6909 c 1.6034,-1.2143 3.6595,-2.164 5.7309,-2.5205 0.3773,-0.073 0.7433,-0.1222 1.0957,-0.1513 3.7959,-0.0937 6.8456,-3.1956 6.8456,-7.0105 0,-3.8149 -3.144,-7.0134 -7.0212,-7.0134 -0.0273,0 -0.0552,0 -0.0825,0.0012 -0.0178,0 -0.035,-0.0012 -0.0522,-0.0012 -2.9879,0 -5.3667,1.4456 -6.5537,4.4917 -0.3144,0.964 -0.366,1.7743 -0.3322,2.5828 0.0024,0.2954 0.0232,0.5861 0.0611,0.8714 0.0742,0.8353 0.1726,1.7233 0.1139,2.8225 -0.3879,5.1028 -5.7594,8.936 -10.2957,8.936 -0.0533,0 0.0493,0 0,0 -0.1216,0 -0.2355,0.0012 -0.3553,-0.0035 -0.1026,-0.0065 -0.2058,-0.0118 -0.3096,-0.0142 -2.8741,-0.2776 -5.4706,-1.4967 -7.472,-3.3415 1.8229,-1.4463 4.1304,-2.3106 6.6403,-2.3106 0.0836,0 0.1667,0 0.2497,0.0024 0.1394,0.0077 0.2806,0.0131 0.4224,0.0131 3.8772,0 7.0212,-3.1404 7.0212,-7.0135 0,-0.3161 -0.0208,-0.6252 -0.0611,-0.9301 l -0.0083,-0.0558 c -0.0244,-0.296 -0.0226,-0.5445 -0.0226,-0.8477 0,-5.8839 4.6739,-10.6776 10.5164,-10.8793 h 0.0533 c 0.0938,0 0.1679,-0.0024 0.2427,-0.003 0.0759,-0.0024 0.153,-0.0035 0.2515,-0.0035 3.8772,0 7.0212,-3.1404 7.0212,-7.0135 0,-3.873 -3.1446,-7.0105 -7.0218,-7.0105 -2.9963,0 -5.5536,1.8734 -6.5614,4.5125 h -0.0018 l -0.0071,0.0238 c -0.0267,0.0705 -0.0522,0.1429 -0.0778,0.2147 -0.3796,0.9224 -1.289,1.5738 -2.3502,1.5738 -1.0613,0 -2.0151,-0.6816 -2.377,-1.6402 -0.9687,-2.7187 -3.5652,-4.6632 -6.6172,-4.6632 -3.052,0 -5.5399,1.8638 -6.5537,4.4911 h -0.0041 c -0.0065,0.022 -0.0137,0.0433 -0.0202,0.0653 -0.0178,0.0492 -0.0356,0.0967 -0.0522,0.1447 -0.3707,0.9343 -1.2837,1.5946 -2.3503,1.5946 -1.0666,0 -2.0335,-0.7006 -2.3817,-1.6788 -0.9817,-2.6938 -3.5669,-4.6175 -6.6024,-4.6175 -3.8771,0 -7.0211,3.1392 -7.0211,7.0122 0,3.8731 3.1434,7.0123 7.0211,7.0123 2.8688,0 5.3353,-1.7185 6.425,-4.1803 h 6e-4 c 0.4259,-0.8809 1.2879,-1.5162 2.3462,-1.5162 1.1294,0 2.0868,0.7136 2.4167,1.7001 0.0895,0.2681 0.0694,0.5481 0.0658,0.7385 -0.388,5.104 -4.7854,8.9361 -10.142,8.9361 h -0.1531 c -0.1774,0.0012 -0.3363,0.0024 -0.5238,-0.0107 h -0.0386 c -0.1103,-0.0053 -0.2218,-0.0077 -0.3339,-0.0077 -3.8784,0.0012 -7.0212,3.1404 -7.0212,7.0135 0,3.873 3.1434,7.0122 7.0212,7.0122 0.5113,0 1.0096,-0.0546 1.4889,-0.1578 0.3026,-0.051 0.7564,-0.0937 1.2701,-0.0587 0.3636,0.035 0.7527,0.1056 1.1496,0.2331 1.4136,0.5185 2.6914,1.3169 3.7668,2.3278 -1.8555,1.9955 -4.3831,3.2644 -7.3515,3.3267 -0.1833,0 -0.2563,-0.0101 -0.3862,-0.0101 -3.8772,0 -7.0212,3.1392 -7.0212,7.0122 0,3.8731 3.1434,7.0135 7.0212,7.0135 2.9049,0 5.3981,-1.7624 6.4653,-4.2764 h 0.0018 c 0.3951,-0.9806 1.3733,-1.6752 2.5164,-1.6752 0.9456,0 1.7761,0.4757 2.2589,1.1935 0.9402,2.7667 3.5622,4.7575 6.6492,4.7575 0.0035,0 0.0071,-0.0012 0.0113,-0.0012 0.0202,0 0.0404,0.0012 0.0605,0.0012 2.9405,0 5.4587,-1.8057 6.5045,-4.3678 0.4176,-0.9325 1.3697,-1.5838 2.4778,-1.5838 1.1081,0 2.1219,0.6946 2.5164,1.6752 h 6e-4 c 1.0672,2.5128 3.5604,4.2764 6.4653,4.2764 3.8772,0 7.0212,-3.1404 7.0212,-7.0135 0,-3.873 -3.144,-7.0122 -7.0212,-7.0122 -3.0235,0 -5.4586,1.792 -6.5887,4.5854 -0.433,0.8614 -1.34,1.4552 -2.3888,1.4552 -0.9919,0 -1.8556,-0.5315 -2.3123,-1.3181 0.1032,-0.6472 0.2444,-1.3288 0.4306,-2.0501 0.8216,-2.4061 2.1611,-4.2308 4.2088,-5.664 z m 6.651,-13.8994 c 2.3319,0 4.2224,1.8888 4.2224,4.2177 0,2.3289 -1.8905,4.2177 -4.2224,4.2177 -2.3319,0 -4.2224,-1.8888 -4.2224,-4.2177 0,-2.3289 1.8905,-4.2177 4.2224,-4.2177 z M 53.6457,-74.2769 c 2.3319,0 4.2224,1.8887 4.2224,4.2182 0,2.3295 -1.8905,4.2177 -4.2224,4.2177 -2.3319,0 -4.2224,-1.8888 -4.2224,-4.2177 0,-2.3289 1.8905,-4.2182 4.2224,-4.2182 z m -17.9646,28.1226 c -2.3319,0 -4.2225,-1.8888 -4.2225,-4.2177 0,-2.3289 1.8906,-4.2189 4.2225,-4.2189 2.3319,0 4.2224,1.8888 4.2224,4.2189 0,2.3301 -1.8905,4.2177 -4.2224,4.2177 z m 7.2394,-8.5594 c 0.8216,-2.4048 2.1611,-4.2295 4.2088,-5.6627 1.6035,-1.2155 3.6595,-2.164 5.731,-2.5205 0.4443,-0.086 0.875,-0.1418 1.2837,-0.1655 2.7204,-0.1916 5.0126,-1.9291 6.002,-4.3393 0.3607,-0.7907 1.171,-1.3418 2.1136,-1.3418 0.999,0 1.8502,0.6199 2.1735,1.4865 0.1032,0.3441 0.0694,0.8442 0.0475,1.0862 -0.732,4.9841 -5.0369,8.8097 -10.2376,8.8097 -0.0895,0 -0.1779,0 -0.2669,-0.0035 h -0.0308 c -0.0647,0 -0.111,0.0012 -0.1572,0.0024 -0.0433,0.0012 -0.0872,0.0012 -0.1418,0.0012 -3.8772,0 -7.0212,3.1404 -7.0212,7.0134 0,0.3192 0.022,0.633 0.0629,0.9403 0.0113,0.0925 0.0202,0.1821 0.0261,0.2657 0.0059,0.1133 0.0095,0.2266 0.0119,0.3411 0,0.1827 -0.0095,0.3269 -0.0184,0.4206 -0.2427,2.0501 -0.9153,3.9727 -1.9416,5.6064 -0.2604,-0.3477 -0.503,-0.7083 -0.7273,-1.0803 -1.3981,-2.1699 -2.527,-5.4035 -1.1176,-10.8586 h -5e-4 z m 4.4182,21.4064 c -0.2912,1.1841 -1.8786,1.6841 -2.581,1.6841 -0.7024,0 -2.2898,-0.5012 -2.5798,-1.6841 -0.4823,-1.9605 1.5571,-5.028 2.5798,-6.2096 1.0233,1.1816 3.0621,4.2491 2.581,6.2096 z m 6.2405,6.8361 c -2.301,-0.0362 -4.1565,-1.9095 -4.1565,-4.2165 0,-2.307 1.8543,-4.1803 4.1554,-4.2165 2.3004,0.0368 4.1548,1.9107 4.1548,4.2165 0,2.3058 -1.8538,4.1791 -4.1543,4.2165 z"
         style="fill:#000e1e;fill-opacity:1;stroke-width:0.264583px"
         id="path1341" />
      <path
         d="m 64.2171,-39.9461 c 1.6034,-1.2143 3.6594,-2.164 5.7309,-2.5205 0.3773,-0.073 0.7433,-0.1222 1.0957,-0.1513 3.7959,-0.0937 6.8455,-3.1956 6.8455,-7.0105 0,-3.8149 -3.144,-7.0134 -7.0211,-7.0134 -0.0273,0 -0.0552,0 -0.0825,0.0012 -0.0178,0 -0.035,-0.0012 -0.0522,-0.0012 -2.988,0 -5.3667,1.4456 -6.5537,4.4917 -0.3144,0.964 -0.366,1.7743 -0.3322,2.5828 0.0024,0.2954 0.0231,0.5861 0.0611,0.8714 0.0741,0.8353 0.1726,1.7233 0.1139,2.8225 -0.388,5.1028 -5.7594,8.936 -10.2957,8.936 -0.0534,0 0.0493,0 0,0 -0.1216,0 -0.2355,0.0012 -0.3553,-0.0035 -0.1026,-0.0065 -0.2059,-0.0118 -0.3097,-0.0142 -2.874,-0.2776 -5.4705,-1.4967 -7.472,-3.3415 1.823,-1.4463 4.1305,-2.3105 6.6404,-2.3105 0.0836,0 0.1667,0 0.2497,0.0024 0.1394,0.0077 0.2806,0.013 0.4224,0.013 3.8772,0 7.0211,-3.1404 7.0211,-7.0135 0,-0.3161 -0.0207,-0.6252 -0.0611,-0.9301 l -0.0083,-0.0558 c -0.0243,-0.296 -0.0225,-0.5445 -0.0225,-0.8476 0,-5.884 4.6739,-10.6777 10.5163,-10.8794 h 0.0534 c 0.0937,0 0.1679,-0.0024 0.2426,-0.003 0.076,-0.0024 0.1531,-0.0035 0.2516,-0.0035 3.8771,0 7.0211,-3.1404 7.0211,-7.0135 0,-3.873 -3.1445,-7.0105 -7.0217,-7.0105 -2.9963,0 -5.5536,1.8734 -6.5615,4.5125 h -0.0018 l -0.0071,0.0238 c -0.0267,0.0705 -0.0522,0.1429 -0.0777,0.2147 -0.3796,0.9224 -1.289,1.5738 -2.3503,1.5738 -1.0612,0 -2.0151,-0.6816 -2.3769,-1.6402 -0.9687,-2.7187 -3.5652,-4.6632 -6.6172,-4.6632 -3.0521,0 -5.54,1.8638 -6.5538,4.4911 h -0.0041 c -0.0065,0.022 -0.0136,0.0433 -0.0201,0.0653 -0.0178,0.0492 -0.0356,0.0967 -0.0522,0.1447 -0.3708,0.9343 -1.2837,1.5946 -2.3503,1.5946 -1.0666,0 -2.0335,-0.7006 -2.3817,-1.6788 -0.9818,-2.6938 -3.567,-4.6175 -6.6024,-4.6175 -3.8772,0 -7.0212,3.1392 -7.0212,7.0123 0,3.873 3.1434,7.0122 7.0212,7.0122 2.8688,0 5.3353,-1.7185 6.425,-4.1803 h 6e-4 c 0.4259,-0.8809 1.2878,-1.5162 2.3461,-1.5162 1.1295,0 2.0869,0.7136 2.4167,1.7001 0.0896,0.2681 0.0694,0.5481 0.0659,0.7385 -0.388,5.104 -4.7854,8.9361 -10.142,8.9361 h -0.1531 c -0.1774,0.0012 -0.3364,0.0024 -0.5238,-0.0107 h -0.0386 c -0.1103,-0.0053 -0.2218,-0.0077 -0.334,-0.0077 -3.8783,0.0012 -7.0211,3.1404 -7.0211,7.0135 0,3.873 3.1434,7.0122 7.0211,7.0122 0.5114,0 1.0097,-0.0546 1.489,-0.1578 0.3025,-0.051 0.7563,-0.0937 1.27,-0.0587 0.3637,0.035 0.7528,0.1056 1.1497,0.2331 1.4136,0.5185 2.6913,1.3169 3.7668,2.3278 -1.8555,1.9955 -4.3832,3.2644 -7.3516,3.3267 -0.1833,0 -0.2562,-0.0101 -0.3861,-0.0101 -3.8772,0 -7.0212,3.1392 -7.0212,7.0122 0,3.8731 3.1434,7.0135 7.0212,7.0135 2.9049,0 5.3981,-1.7624 6.4653,-4.2764 h 0.0018 c 0.3951,-0.9806 1.3733,-1.6752 2.5164,-1.6752 0.9455,0 1.776,0.4757 2.2589,1.1935 0.9402,2.7667 3.5622,4.7575 6.6492,4.7575 0.0035,0 0.0071,-0.0012 0.0113,-0.0012 0.0202,0 0.0403,0.0012 0.0605,0.0012 2.9405,0 5.4587,-1.8057 6.5045,-4.3678 0.4176,-0.9325 1.3697,-1.5838 2.4778,-1.5838 1.1081,0 2.1219,0.6946 2.5164,1.6752 h 6e-4 c 1.0671,2.5128 3.5604,4.2764 6.4653,4.2764 3.8772,0 7.0212,-3.1404 7.0212,-7.0135 0,-3.873 -3.144,-7.0122 -7.0212,-7.0122 -3.0236,0 -5.4587,1.792 -6.5887,4.5854 -0.4331,0.8614 -1.3401,1.4552 -2.3889,1.4552 -0.9918,0 -1.8555,-0.5315 -2.3123,-1.3181 0.1032,-0.6472 0.2444,-1.3288 0.4307,-2.0501 0.8216,-2.4061 2.161,-4.2308 4.2088,-5.664 z m 6.651,-13.8994 c 2.3318,0 4.2224,1.8888 4.2224,4.2177 0,2.3289 -1.8906,4.2177 -4.2224,4.2177 -2.3319,0 -4.2225,-1.8888 -4.2225,-4.2177 0,-2.3289 1.8906,-4.2177 4.2225,-4.2177 z M 52.9035,-73.5321 c 2.3318,0 4.2224,1.8887 4.2224,4.2182 0,2.3295 -1.8906,4.2177 -4.2224,4.2177 -2.3319,0 -4.2225,-1.8887 -4.2225,-4.2177 0,-2.3289 1.8906,-4.2182 4.2225,-4.2182 z m -17.9647,28.1226 c -2.3318,0 -4.2224,-1.8888 -4.2224,-4.2177 0,-2.3289 1.8906,-4.2189 4.2224,-4.2189 2.3319,0 4.2225,1.8888 4.2225,4.2189 0,2.3301 -1.8906,4.2177 -4.2225,4.2177 z m 7.2395,-8.5594 c 0.8216,-2.4048 2.1611,-4.2295 4.2088,-5.6627 1.6034,-1.2155 3.6595,-2.164 5.731,-2.5205 0.4443,-0.086 0.8749,-0.1418 1.2836,-0.1655 2.7205,-0.1916 5.0126,-1.9291 6.0021,-4.3393 0.3607,-0.7907 1.171,-1.3418 2.1136,-1.3418 0.9989,0 1.8502,0.6199 2.1735,1.4865 0.1032,0.3441 0.0694,0.8442 0.0474,1.0862 -0.732,4.9841 -5.0369,8.8097 -10.2375,8.8097 -0.0896,0 -0.1779,0 -0.2669,-0.0035 H 53.203 c -0.0646,0 -0.1109,0.0012 -0.1572,0.0024 -0.0433,0.0012 -0.0872,0.0012 -0.1417,0.0012 -3.8772,0 -7.0212,3.1404 -7.0212,7.0134 0,0.3192 0.0219,0.633 0.0629,0.9403 0.0112,0.0925 0.0201,0.1821 0.0261,0.2657 0.0059,0.1133 0.0095,0.2266 0.0118,0.3411 0,0.1827 -0.0095,0.3269 -0.0184,0.4206 -0.2426,2.0501 -0.9153,3.9727 -1.9415,5.6064 -0.2604,-0.3476 -0.5031,-0.7083 -0.7273,-1.0803 -1.3982,-2.1699 -2.527,-5.4035 -1.1176,-10.8586 h -6e-4 z m 4.4182,21.4064 c -0.2913,1.1841 -1.8787,1.6841 -2.581,1.6841 -0.7024,0 -2.2898,-0.5012 -2.5799,-1.6841 -0.4823,-1.9605 1.5572,-5.028 2.5799,-6.2096 1.0232,1.1816 3.0621,4.2491 2.581,6.2096 z m 6.2405,6.8361 c -2.301,-0.0362 -4.1566,-1.9095 -4.1566,-4.2165 0,-2.307 1.8544,-4.1803 4.1554,-4.2165 2.3005,0.0368 4.1548,1.9107 4.1548,4.2165 0,2.3058 -1.8537,4.1791 -4.1542,4.2165 z"
         style="fill:#001630;fill-opacity:1;stroke-width:0.264583px"
         id="path1342" />
      <path
         d="m 63.3099,-39.0358 c 1.6034,-1.2143 3.6595,-2.164 5.7309,-2.5205 0.3773,-0.073 0.7433,-0.1222 1.0957,-0.1513 3.7959,-0.0937 6.8456,-3.1956 6.8456,-7.0105 0,-3.8149 -3.144,-7.0134 -7.0212,-7.0134 -0.0273,0 -0.0552,0 -0.0825,0.0012 -0.0178,0 -0.035,-0.0012 -0.0522,-0.0012 -2.9879,0 -5.3667,1.4456 -6.5537,4.4917 -0.3144,0.964 -0.366,1.7743 -0.3322,2.5828 0.0024,0.2955 0.0232,0.5861 0.0611,0.8715 0.0742,0.8352 0.1726,1.7232 0.1139,2.8224 -0.3879,5.1028 -5.7594,8.9361 -10.2956,8.9361 -0.0534,0 0.0492,0 0,0 -0.1217,0 -0.2355,0.0012 -0.3554,-0.0035 -0.1026,-0.0065 -0.2058,-0.0119 -0.3096,-0.0143 -2.8741,-0.2776 -5.4706,-1.4966 -7.472,-3.3415 1.8229,-1.4462 4.1304,-2.3105 6.6403,-2.3105 0.0836,0 0.1667,0 0.2497,0.0024 0.1394,0.0077 0.2806,0.013 0.4224,0.013 3.8772,0 7.0212,-3.1404 7.0212,-7.0134 0,-0.3162 -0.0208,-0.6253 -0.0611,-0.9302 l -0.0083,-0.0557 c -0.0244,-0.2961 -0.0226,-0.5446 -0.0226,-0.8477 0,-5.884 4.6739,-10.6777 10.5164,-10.8794 h 0.0533 c 0.0938,0 0.1679,-0.0024 0.2427,-0.003 0.0759,-0.0024 0.153,-0.0035 0.2515,-0.0035 3.8772,0 7.0212,-3.1404 7.0212,-7.0135 0,-3.873 -3.1446,-7.0105 -7.0218,-7.0105 -2.9963,0 -5.5536,1.8734 -6.5614,4.5125 h -0.0018 l -0.0071,0.0238 c -0.0267,0.0706 -0.0522,0.1429 -0.0777,0.2147 -0.3797,0.9224 -1.2891,1.5738 -2.3503,1.5738 -1.0613,0 -2.0151,-0.6816 -2.377,-1.6402 -0.9687,-2.7187 -3.5652,-4.6632 -6.6172,-4.6632 -3.052,0 -5.5399,1.8638 -6.5537,4.4911 h -0.0041 c -0.0065,0.022 -0.0137,0.0433 -0.0202,0.0653 -0.0178,0.0492 -0.0356,0.0967 -0.0522,0.1447 -0.3707,0.9343 -1.2837,1.5946 -2.3503,1.5946 -1.0665,0 -2.0335,-0.7006 -2.3817,-1.6788 -0.9817,-2.6937 -3.5669,-4.6175 -6.6023,-4.6175 -3.8772,0 -7.0212,3.1392 -7.0212,7.0123 0,3.873 3.1434,7.0122 7.0212,7.0122 2.8687,0 5.3352,-1.7185 6.425,-4.1803 h 5e-4 c 0.426,-0.8809 1.2879,-1.5162 2.3462,-1.5162 1.1294,0 2.0869,0.7136 2.4167,1.7001 0.0895,0.2681 0.0694,0.5481 0.0658,0.7386 -0.3879,5.1039 -4.7854,8.936 -10.142,8.936 h -0.1531 c -0.1774,0.0012 -0.3363,0.0024 -0.5238,-0.0107 h -0.0385 c -0.1104,-0.0053 -0.2219,-0.0077 -0.334,-0.0077 -3.8784,0.0012 -7.0212,3.1404 -7.0212,7.0135 0,3.873 3.1434,7.0122 7.0212,7.0122 0.5113,0 1.0096,-0.0545 1.4889,-0.1578 0.3026,-0.051 0.7564,-0.0937 1.2701,-0.0587 0.3636,0.035 0.7528,0.1056 1.1496,0.2331 1.4136,0.5185 2.6914,1.317 3.7669,2.3278 -1.8556,1.9955 -4.3832,3.2644 -7.3516,3.3267 -0.1833,0 -0.2563,-0.0101 -0.3862,-0.0101 -3.8772,0 -7.0212,3.1392 -7.0212,7.0123 0,3.873 3.1434,7.0134 7.0212,7.0134 2.9049,0 5.3982,-1.7624 6.4653,-4.2764 h 0.0018 c 0.3951,-0.9806 1.3733,-1.6752 2.5164,-1.6752 0.9456,0 1.7761,0.4757 2.2589,1.1935 0.9403,2.7667 3.5622,4.7575 6.6493,4.7575 0.0035,0 0.0071,-0.0012 0.0112,-0.0012 0.0202,0 0.0404,0.0012 0.0605,0.0012 2.9406,0 5.4587,-1.8057 6.5045,-4.3677 0.4176,-0.9326 1.3697,-1.5839 2.4778,-1.5839 1.1081,0 2.1219,0.6946 2.5164,1.6752 h 6e-4 c 1.0672,2.5128 3.5604,4.2764 6.4653,4.2764 3.8772,0 7.0212,-3.1404 7.0212,-7.0134 0,-3.8731 -3.144,-7.0123 -7.0212,-7.0123 -3.0235,0 -5.4586,1.7921 -6.5887,4.5855 -0.433,0.8613 -1.34,1.4551 -2.3888,1.4551 -0.9919,0 -1.8556,-0.5315 -2.3123,-1.3181 0.1032,-0.6472 0.2444,-1.3288 0.4306,-2.0501 0.8216,-2.4061 2.1611,-4.2308 4.2088,-5.6639 z m 6.651,-13.8994 c 2.3319,0 4.2224,1.8888 4.2224,4.2177 0,2.329 -1.8905,4.2177 -4.2224,4.2177 -2.3319,0 -4.2224,-1.8887 -4.2224,-4.2177 0,-2.3289 1.8905,-4.2177 4.2224,-4.2177 z M 51.9963,-72.6218 c 2.3319,0 4.2224,1.8887 4.2224,4.2182 0,2.3296 -1.8905,4.2177 -4.2224,4.2177 -2.3319,0 -4.2224,-1.8887 -4.2224,-4.2177 0,-2.3289 1.8905,-4.2182 4.2224,-4.2182 z m -17.9646,28.1226 c -2.3319,0 -4.2225,-1.8888 -4.2225,-4.2177 0,-2.3289 1.8906,-4.2188 4.2225,-4.2188 2.3319,0 4.2224,1.8887 4.2224,4.2188 0,2.3301 -1.8905,4.2177 -4.2224,4.2177 z m 7.2394,-8.5593 c 0.8216,-2.4049 2.1611,-4.2296 4.2088,-5.6628 1.6035,-1.2154 3.6595,-2.164 5.731,-2.5205 0.4443,-0.086 0.875,-0.1418 1.2837,-0.1655 2.7204,-0.1916 5.0126,-1.9291 6.002,-4.3393 0.3607,-0.7907 1.171,-1.3418 2.1136,-1.3418 0.999,0 1.8502,0.6199 2.1735,1.4866 0.1032,0.344 0.0694,0.8441 0.0475,1.0861 -0.732,4.9841 -5.0369,8.8097 -10.2376,8.8097 -0.0895,0 -0.1779,0 -0.2669,-0.0035 h -0.0308 c -0.0647,0 -0.111,0.0012 -0.1572,0.0024 -0.0433,0.0012 -0.0872,0.0012 -0.1418,0.0012 -3.8772,0 -7.0212,3.1404 -7.0212,7.0134 0,0.3192 0.022,0.633 0.0629,0.9403 0.0113,0.0925 0.0202,0.1821 0.0261,0.2657 0.0059,0.1133 0.0095,0.2266 0.0119,0.3411 0,0.1827 -0.0095,0.3269 -0.0184,0.4206 -0.2426,2.0501 -0.9153,3.9727 -1.9416,5.6064 -0.2604,-0.3476 -0.503,-0.7083 -0.7273,-1.0802 -1.3981,-2.17 -2.527,-5.4035 -1.1176,-10.8587 h -5e-4 z m 4.4182,21.4063 c -0.2912,1.1841 -1.8786,1.6842 -2.581,1.6842 -0.7024,0 -2.2898,-0.5013 -2.5798,-1.6842 -0.4823,-1.9605 1.5571,-5.028 2.5798,-6.2096 1.0233,1.1816 3.0621,4.2491 2.581,6.2096 z m 6.2405,6.8361 c -2.301,-0.0362 -4.1565,-1.9095 -4.1565,-4.2165 0,-2.3069 1.8543,-4.1803 4.1554,-4.2165 2.3004,0.0368 4.1548,1.9107 4.1548,4.2165 0,2.3058 -1.8538,4.1792 -4.1542,4.2165 z"
         style="fill:#002045;fill-opacity:1;stroke-width:0.264583px"
         id="path1343" />
      <path
         d="m 62.2378,-37.9599 c 1.6034,-1.2143 3.6595,-2.1641 5.7309,-2.5206 0.3773,-0.0729 0.7433,-0.1222 1.0957,-0.1512 3.7959,-0.0938 6.8456,-3.1956 6.8456,-7.0105 0,-3.8149 -3.144,-7.0135 -7.0212,-7.0135 -0.0273,0 -0.0552,0 -0.0825,0.0012 -0.0178,0 -0.035,-0.0012 -0.0522,-0.0012 -2.9879,0 -5.3667,1.4456 -6.5537,4.4918 -0.3144,0.9639 -0.366,1.7742 -0.3322,2.5828 0.0024,0.2954 0.0232,0.5861 0.0611,0.8714 0.0742,0.8352 0.1726,1.7232 0.1139,2.8225 -0.3879,5.1027 -5.7594,8.936 -10.2957,8.936 -0.0533,0 0.0493,0 0,0 -0.1216,0 -0.2355,0.0012 -0.3553,-0.0035 -0.1026,-0.0065 -0.2058,-0.0119 -0.3096,-0.0143 -2.8741,-0.2776 -5.4706,-1.4966 -7.472,-3.3415 1.8229,-1.4462 4.1304,-2.3105 6.6403,-2.3105 0.0836,0 0.1667,0 0.2497,0.0024 0.1394,0.0077 0.2806,0.013 0.4224,0.013 3.8772,0 7.0212,-3.1404 7.0212,-7.0134 0,-0.3162 -0.0208,-0.6253 -0.0611,-0.9302 l -0.0083,-0.0557 c -0.0244,-0.296 -0.0226,-0.5446 -0.0226,-0.8477 0,-5.884 4.6739,-10.6777 10.5164,-10.8794 h 0.0533 c 0.0938,0 0.1679,-0.0024 0.2427,-0.003 0.0759,-0.0024 0.153,-0.0035 0.2515,-0.0035 3.8772,0 7.0212,-3.1404 7.0212,-7.0134 0,-3.8731 -3.1446,-7.0105 -7.0218,-7.0105 -2.9963,0 -5.5536,1.8733 -6.5614,4.5125 h -0.0018 l -0.0071,0.0237 c -0.0267,0.0706 -0.0522,0.143 -0.0778,0.2147 -0.3796,0.9225 -1.289,1.5738 -2.3502,1.5738 -1.0613,0 -2.0151,-0.6816 -2.377,-1.6402 -0.9687,-2.7187 -3.5652,-4.6632 -6.6172,-4.6632 -3.052,0 -5.5399,1.8639 -6.5537,4.4912 h -0.0041 c -0.0065,0.0219 -0.0137,0.0433 -0.0202,0.0652 -0.0178,0.0493 -0.0356,0.0967 -0.0522,0.1448 -0.3707,0.9343 -1.2837,1.5945 -2.3503,1.5945 -1.0666,0 -2.0335,-0.7006 -2.3817,-1.6788 -0.9817,-2.6937 -3.5669,-4.6175 -6.6024,-4.6175 -3.8771,0 -7.0211,3.1393 -7.0211,7.0123 0,3.873 3.1434,7.0123 7.0211,7.0123 2.8688,0 5.3353,-1.7186 6.425,-4.1803 h 6e-4 c 0.4259,-0.881 1.2879,-1.5163 2.3462,-1.5163 1.1294,0 2.0868,0.7136 2.4167,1.7001 0.0895,0.2682 0.0694,0.5482 0.0658,0.7386 -0.388,5.1039 -4.7854,8.936 -10.142,8.936 h -0.1531 c -0.1774,0.0012 -0.3363,0.0024 -0.5238,-0.0107 h -0.0386 c -0.1103,-0.0053 -0.2218,-0.0077 -0.3339,-0.0077 -3.8784,0.0012 -7.0212,3.1405 -7.0212,7.0135 0,3.873 3.1434,7.0123 7.0212,7.0123 0.5113,0 1.0096,-0.0546 1.4889,-0.1578 0.3026,-0.051 0.7564,-0.0938 1.2701,-0.0588 0.3636,0.035 0.7527,0.1056 1.1496,0.2332 1.4136,0.5184 2.6914,1.3169 3.7668,2.3277 -1.8555,1.9955 -4.3831,3.2644 -7.3515,3.3267 -0.1833,0 -0.2563,-0.0101 -0.3862,-0.0101 -3.8772,0 -7.0212,3.1392 -7.0212,7.0123 0,3.873 3.1434,7.0134 7.0212,7.0134 2.9049,0 5.3981,-1.7624 6.4653,-4.2764 h 0.0018 c 0.3951,-0.9805 1.3733,-1.6752 2.5164,-1.6752 0.9456,0 1.7761,0.4758 2.2589,1.1935 0.9402,2.7667 3.5622,4.7575 6.6492,4.7575 0.0035,0 0.0071,-0.0012 0.0113,-0.0012 0.0202,0 0.0404,0.0012 0.0605,0.0012 2.9405,0 5.4587,-1.8057 6.5045,-4.3677 0.4176,-0.9325 1.3697,-1.5839 2.4778,-1.5839 1.1081,0 2.1219,0.6947 2.5164,1.6752 h 6e-4 c 1.0672,2.5128 3.5604,4.2764 6.4653,4.2764 3.8772,0 7.0212,-3.1404 7.0212,-7.0134 0,-3.873 -3.144,-7.0123 -7.0212,-7.0123 -3.0235,0 -5.4586,1.7921 -6.5887,4.5855 -0.433,0.8613 -1.34,1.4551 -2.3888,1.4551 -0.9919,0 -1.8556,-0.5315 -2.3123,-1.3181 0.1032,-0.6472 0.2444,-1.3288 0.4306,-2.0501 0.8216,-2.406 2.1611,-4.2307 4.2088,-5.6639 z m 6.651,-13.8994 c 2.3319,0 4.2224,1.8887 4.2224,4.2177 0,2.3289 -1.8905,4.2176 -4.2224,4.2176 -2.3319,0 -4.2224,-1.8887 -4.2224,-4.2176 0,-2.329 1.8905,-4.2177 4.2224,-4.2177 z M 50.9242,-71.546 c 2.3319,0 4.2224,1.8888 4.2224,4.2183 0,2.3295 -1.8905,4.2177 -4.2224,4.2177 -2.3319,0 -4.2224,-1.8888 -4.2224,-4.2177 0,-2.329 1.8905,-4.2183 4.2224,-4.2183 z m -17.9646,28.1226 c -2.3319,0 -4.2225,-1.8887 -4.2225,-4.2176 0,-2.329 1.8906,-4.2189 4.2225,-4.2189 2.3319,0 4.2224,1.8887 4.2224,4.2189 0,2.3301 -1.8905,4.2176 -4.2224,4.2176 z m 7.2394,-8.5593 c 0.8216,-2.4049 2.1611,-4.2296 4.2088,-5.6627 1.6035,-1.2155 3.6595,-2.1641 5.731,-2.5206 0.4443,-0.086 0.875,-0.1417 1.2837,-0.1655 2.7204,-0.1916 5.0126,-1.9291 6.002,-4.3393 0.3607,-0.7907 1.171,-1.3418 2.1136,-1.3418 0.999,0 1.8502,0.6199 2.1735,1.4866 0.1032,0.344 0.0694,0.8441 0.0475,1.0861 -0.732,4.9841 -5.0369,8.8097 -10.2376,8.8097 -0.0895,0 -0.1779,0 -0.2669,-0.0035 h -0.0308 c -0.0647,0 -0.111,0.0012 -0.1572,0.0024 -0.0433,0.0012 -0.0872,0.0012 -0.1418,0.0012 -3.8772,0 -7.0212,3.1404 -7.0212,7.0135 0,0.3191 0.022,0.6329 0.0629,0.9402 0.0113,0.0925 0.0202,0.1821 0.0261,0.2658 0.0059,0.1133 0.0095,0.2266 0.0119,0.3411 0,0.1827 -0.0095,0.3268 -0.0184,0.4205 -0.2427,2.0501 -0.9153,3.9727 -1.9416,5.6064 -0.2604,-0.3476 -0.503,-0.7083 -0.7273,-1.0802 -1.3981,-2.17 -2.527,-5.4035 -1.1176,-10.8586 h -5e-4 z m 4.4182,21.4064 c -0.2912,1.184 -1.8786,1.6841 -2.581,1.6841 -0.7024,0 -2.2898,-0.5013 -2.5798,-1.6841 -0.4823,-1.9606 1.5571,-5.028 2.5798,-6.2097 1.0233,1.1817 3.0621,4.2491 2.581,6.2097 z m 6.2405,6.8361 c -2.301,-0.0362 -4.1565,-1.9096 -4.1565,-4.2165 0,-2.307 1.8543,-4.1804 4.1554,-4.2165 2.3004,0.0367 4.1548,1.9107 4.1548,4.2165 0,2.3057 -1.8538,4.1791 -4.1543,4.2165 z"
         style="fill:#012c5e;fill-opacity:1;stroke-width:0.264583px"
         id="path1344" />
      <path
         d="m 61.0007,-36.7186 c 1.6035,-1.2143 3.6595,-2.164 5.731,-2.5205 0.3773,-0.073 0.7433,-0.1222 1.0956,-0.1513 3.7959,-0.0937 6.8456,-3.1956 6.8456,-7.0105 0,-3.8149 -3.144,-7.0135 -7.0212,-7.0135 -0.0272,0 -0.0551,0 -0.0824,0.0012 -0.0178,0 -0.035,-0.0012 -0.0522,-0.0012 -2.988,0 -5.3667,1.4457 -6.5537,4.4918 -0.3144,0.9639 -0.366,1.7743 -0.3322,2.5828 0.0024,0.2954 0.0231,0.5861 0.0611,0.8714 0.0741,0.8353 0.1726,1.7233 0.1139,2.8225 -0.388,5.1027 -5.7595,8.936 -10.2957,8.936 -0.0534,0 0.0492,0 0,0 -0.1216,0 -0.2355,0.0012 -0.3553,-0.0035 -0.1027,-0.0065 -0.2059,-0.0118 -0.3097,-0.0142 -2.8741,-0.2776 -5.4705,-1.4967 -7.472,-3.3415 1.8229,-1.4463 4.1305,-2.3106 6.6403,-2.3106 0.0837,0 0.1667,0 0.2498,0.0024 0.1394,0.0077 0.2806,0.0131 0.4223,0.0131 3.8772,0 7.0212,-3.1404 7.0212,-7.0135 0,-0.3162 -0.0207,-0.6252 -0.0611,-0.9301 l -0.0083,-0.0558 c -0.0243,-0.296 -0.0225,-0.5445 -0.0225,-0.8477 0,-5.884 4.6738,-10.6777 10.5163,-10.8793 h 0.0534 c 0.0937,0 0.1679,-0.0024 0.2426,-0.003 0.0759,-0.0024 0.1531,-0.0035 0.2515,-0.0035 3.8772,0 7.0212,-3.1405 7.0212,-7.0135 0,-3.873 -3.1446,-7.0105 -7.0218,-7.0105 -2.9962,0 -5.5535,1.8733 -6.5614,4.5125 h -0.0018 l -0.0071,0.0237 c -0.0267,0.0706 -0.0522,0.143 -0.0777,0.2148 -0.3797,0.9224 -1.289,1.5737 -2.3503,1.5737 -1.0612,0 -2.0151,-0.6815 -2.3769,-1.6402 -0.9688,-2.7186 -3.5652,-4.6631 -6.6172,-4.6631 -3.0521,0 -5.54,1.8638 -6.5538,4.4911 h -0.0041 c -0.0065,0.022 -0.0136,0.0433 -0.0201,0.0653 -0.0178,0.0492 -0.0356,0.0966 -0.0522,0.1447 -0.3708,0.9343 -1.2837,1.5945 -2.3503,1.5945 -1.0666,0 -2.0335,-0.7005 -2.3817,-1.6787 -0.9818,-2.6938 -3.567,-4.6175 -6.6024,-4.6175 -3.8772,0 -7.0212,3.1392 -7.0212,7.0122 0,3.8731 3.1434,7.0123 7.0212,7.0123 2.8687,0 5.3353,-1.7185 6.425,-4.1803 h 6e-4 c 0.4259,-0.8809 1.2878,-1.5162 2.3461,-1.5162 1.1295,0 2.0869,0.7136 2.4167,1.7001 0.0896,0.2681 0.0694,0.5481 0.0659,0.7385 -0.388,5.104 -4.7854,8.9361 -10.1421,8.9361 h -0.153 c -0.1774,0.0012 -0.3364,0.0024 -0.5238,-0.0107 h -0.0386 c -0.1103,-0.0053 -0.2219,-0.0077 -0.334,-0.0077 -3.8783,0.0012 -7.0211,3.1404 -7.0211,7.0134 0,3.8731 3.1433,7.0123 7.0211,7.0123 0.5114,0 1.0097,-0.0546 1.489,-0.1578 0.3025,-0.051 0.7563,-0.0937 1.27,-0.0587 0.3637,0.035 0.7528,0.1056 1.1497,0.2331 1.4136,0.5185 2.6913,1.3169 3.7668,2.3277 -1.8555,1.9956 -4.3832,3.2644 -7.3516,3.3267 -0.1833,0 -0.2562,-0.0101 -0.3862,-0.0101 -3.8771,0 -7.0211,3.1393 -7.0211,7.0123 0,3.873 3.1434,7.0135 7.0211,7.0135 2.905,0 5.3982,-1.7624 6.4654,-4.2764 h 0.0018 c 0.3951,-0.9806 1.3732,-1.6752 2.5164,-1.6752 0.9455,0 1.776,0.4757 2.2589,1.1935 0.9402,2.7667 3.5622,4.7575 6.6492,4.7575 0.0035,0 0.0071,-0.0012 0.0113,-0.0012 0.0201,0 0.0403,0.0012 0.0605,0.0012 2.9405,0 5.4587,-1.8057 6.5045,-4.3678 0.4176,-0.9325 1.3697,-1.5838 2.4778,-1.5838 1.1081,0 2.1219,0.6946 2.5164,1.6752 h 5e-4 c 1.0672,2.5128 3.5605,4.2764 6.4654,4.2764 3.8772,0 7.0212,-3.1404 7.0212,-7.0135 0,-3.873 -3.144,-7.0122 -7.0212,-7.0122 -3.0236,0 -5.4587,1.792 -6.5887,4.5854 -0.4331,0.8614 -1.3401,1.4552 -2.3889,1.4552 -0.9918,0 -1.8555,-0.5316 -2.3123,-1.3181 0.1032,-0.6472 0.2444,-1.3288 0.4307,-2.0502 0.8216,-2.406 2.161,-4.2307 4.2088,-5.6639 z m 6.651,-13.8994 c 2.3319,0 4.2225,1.8888 4.2225,4.2177 0,2.3289 -1.8906,4.2177 -4.2225,4.2177 -2.3318,0 -4.2224,-1.8888 -4.2224,-4.2177 0,-2.3289 1.8906,-4.2177 4.2224,-4.2177 z M 49.6871,-70.3047 c 2.3319,0 4.2225,1.8888 4.2225,4.2183 0,2.3295 -1.8906,4.2177 -4.2225,4.2177 -2.3319,0 -4.2224,-1.8888 -4.2224,-4.2177 0,-2.3289 1.8905,-4.2183 4.2224,-4.2183 z M 31.7225,-42.182 c -2.3319,0 -4.2224,-1.8888 -4.2224,-4.2177 0,-2.3289 1.8905,-4.2189 4.2224,-4.2189 2.3319,0 4.2225,1.8888 4.2225,4.2189 0,2.3301 -1.8906,4.2177 -4.2225,4.2177 z m 7.2395,-8.5594 c 0.8216,-2.4048 2.161,-4.2295 4.2088,-5.6627 1.6034,-1.2155 3.6595,-2.164 5.7309,-2.5205 0.4443,-0.086 0.875,-0.1418 1.2837,-0.1655 2.7205,-0.1916 5.0126,-1.9291 6.0021,-4.3393 0.3606,-0.7908 1.171,-1.3419 2.1136,-1.3419 0.9989,0 1.8502,0.6199 2.1735,1.4866 0.1032,0.3441 0.0694,0.8441 0.0474,1.0862 -0.732,4.9841 -5.0369,8.8097 -10.2375,8.8097 -0.0896,0 -0.178,0 -0.2669,-0.0035 h -0.0309 c -0.0646,0 -0.1109,0.0012 -0.1572,0.0024 -0.0433,0.0012 -0.0872,0.0012 -0.1418,0.0012 -3.8771,0 -7.0211,3.1404 -7.0211,7.0134 0,0.3192 0.0219,0.633 0.0629,0.9402 0.0112,0.0926 0.0201,0.1822 0.0261,0.2658 0.0059,0.1133 0.0095,0.2266 0.0118,0.3411 0,0.1827 -0.0095,0.3268 -0.0184,0.4206 -0.2426,2.0501 -0.9153,3.9727 -1.9415,5.6063 -0.2605,-0.3476 -0.5031,-0.7082 -0.7273,-1.0802 -1.3982,-2.1699 -2.5271,-5.4035 -1.1176,-10.8586 h -6e-4 z m 4.4182,21.4064 c -0.2913,1.184 -1.8787,1.6841 -2.581,1.6841 -0.7024,0 -2.2898,-0.5012 -2.5799,-1.6841 -0.4823,-1.9605 1.5572,-5.028 2.5799,-6.2097 1.0232,1.1817 3.0621,4.2492 2.581,6.2097 z m 6.2405,6.8361 c -2.301,-0.0362 -4.1566,-1.9095 -4.1566,-4.2165 0,-2.307 1.8544,-4.1803 4.1554,-4.2165 2.3005,0.0368 4.1548,1.9107 4.1548,4.2165 0,2.3058 -1.8537,4.1791 -4.1542,4.2165 z"
         style="fill:#01397b;fill-opacity:1;stroke-width:0.264583px"
         id="path1345" />
      <path
         d="m 59.5988,-35.3118 c 1.6034,-1.2143 3.6594,-2.164 5.7309,-2.5205 0.3773,-0.0729 0.7433,-0.1222 1.0956,-0.1513 3.796,-0.0937 6.8456,-3.1955 6.8456,-7.0104 0,-3.8149 -3.144,-7.0135 -7.0211,-7.0135 -0.0273,0 -0.0552,0 -0.0825,0.0012 -0.0178,0 -0.035,-0.0012 -0.0522,-0.0012 -2.988,0 -5.3667,1.4456 -6.5537,4.4917 -0.3144,0.964 -0.366,1.7743 -0.3322,2.5829 0.0024,0.2954 0.0231,0.586 0.0611,0.8714 0.0741,0.8352 0.1726,1.7232 0.1139,2.8224 -0.388,5.1028 -5.7594,8.9361 -10.2957,8.9361 -0.0534,0 0.0493,0 0,0 -0.1216,0 -0.2355,0.0012 -0.3553,-0.0035 -0.1026,-0.0065 -0.2059,-0.0119 -0.3097,-0.0143 -2.874,-0.2776 -5.4705,-1.4966 -7.472,-3.3415 1.8229,-1.4462 4.1305,-2.3105 6.6404,-2.3105 0.0836,0 0.1667,0 0.2497,0.0024 0.1394,0.0077 0.2806,0.013 0.4224,0.013 3.8771,0 7.0211,-3.1404 7.0211,-7.0134 0,-0.3162 -0.0207,-0.6253 -0.0611,-0.9302 l -0.0083,-0.0557 c -0.0243,-0.296 -0.0225,-0.5446 -0.0225,-0.8477 0,-5.884 4.6739,-10.6777 10.5163,-10.8794 h 0.0534 c 0.0937,0 0.1679,-0.0024 0.2426,-0.003 0.076,-0.0024 0.1531,-0.0035 0.2516,-0.0035 3.8771,0 7.0211,-3.1404 7.0211,-7.0135 0,-3.873 -3.1446,-7.0105 -7.0217,-7.0105 -2.9963,0 -5.5536,1.8734 -6.5615,4.5126 h -0.0018 l -0.0071,0.0237 c -0.0267,0.0706 -0.0522,0.1429 -0.0777,0.2147 -0.3796,0.9225 -1.289,1.5738 -2.3503,1.5738 -1.0612,0 -2.0151,-0.6816 -2.3769,-1.6402 -0.9687,-2.7187 -3.5652,-4.6632 -6.6172,-4.6632 -3.0521,0 -5.54,1.8639 -6.5538,4.4912 h -0.0041 c -0.0065,0.0219 -0.0136,0.0433 -0.0201,0.0652 -0.0178,0.0492 -0.0356,0.0967 -0.0522,0.1447 -0.3708,0.9343 -1.2837,1.5946 -2.3503,1.5946 -1.0666,0 -2.0335,-0.7006 -2.3817,-1.6788 -0.9818,-2.6937 -3.567,-4.6175 -6.6024,-4.6175 -3.8772,0 -7.0212,3.1392 -7.0212,7.0123 0,3.873 3.1434,7.0122 7.0212,7.0122 2.8688,0 5.3353,-1.7185 6.425,-4.1803 h 6e-4 c 0.4259,-0.8809 1.2878,-1.5162 2.3461,-1.5162 1.1295,0 2.0869,0.7136 2.4167,1.7001 0.0896,0.2682 0.0694,0.5482 0.0659,0.7386 -0.388,5.1039 -4.7854,8.936 -10.142,8.936 h -0.1531 c -0.1774,0.0012 -0.3364,0.0024 -0.5238,-0.0107 h -0.0386 c -0.1103,-0.0053 -0.2218,-0.0077 -0.334,-0.0077 -3.8783,0.0012 -7.0211,3.1404 -7.0211,7.0135 0,3.873 3.1434,7.0123 7.0211,7.0123 0.5114,0 1.0097,-0.0546 1.489,-0.1578 0.3025,-0.0511 0.7563,-0.0938 1.27,-0.0588 0.3637,0.035 0.7528,0.1056 1.1497,0.2332 1.4136,0.5184 2.6913,1.3169 3.7668,2.3277 -1.8555,1.9955 -4.3832,3.2644 -7.3516,3.3267 -0.1833,0 -0.2562,-0.0101 -0.3861,-0.0101 -3.8772,0 -7.0212,3.1392 -7.0212,7.0123 0,3.873 3.1434,7.0134 7.0212,7.0134 2.9049,0 5.3981,-1.7624 6.4653,-4.2764 h 0.0018 c 0.3951,-0.9806 1.3733,-1.6752 2.5164,-1.6752 0.9455,0 1.776,0.4758 2.2589,1.1935 0.9402,2.7667 3.5622,4.7575 6.6492,4.7575 0.0035,0 0.0071,-0.0012 0.0113,-0.0012 0.0202,0 0.0403,0.0012 0.0605,0.0012 2.9405,0 5.4587,-1.8057 6.5045,-4.3677 0.4176,-0.9326 1.3697,-1.5839 2.4778,-1.5839 1.1081,0 2.1219,0.6947 2.5164,1.6752 h 6e-4 c 1.0671,2.5128 3.5604,4.2764 6.4653,4.2764 3.8772,0 7.0212,-3.1404 7.0212,-7.0134 0,-3.8731 -3.144,-7.0123 -7.0212,-7.0123 -3.0236,0 -5.4587,1.7921 -6.5887,4.5855 -0.4331,0.8613 -1.3401,1.4551 -2.3889,1.4551 -0.9918,0 -1.8555,-0.5315 -2.3123,-1.3181 0.1032,-0.6472 0.2444,-1.3288 0.4307,-2.0501 0.8216,-2.4061 2.161,-4.2307 4.2088,-5.6639 z m 6.651,-13.8993 c 2.3318,0 4.2224,1.8887 4.2224,4.2176 0,2.329 -1.8906,4.2177 -4.2224,4.2177 -2.3319,0 -4.2225,-1.8887 -4.2225,-4.2177 0,-2.3289 1.8906,-4.2176 4.2225,-4.2176 z M 48.2852,-68.8978 c 2.3318,0 4.2224,1.8887 4.2224,4.2183 0,2.3295 -1.8906,4.2176 -4.2224,4.2176 -2.3319,0 -4.2225,-1.8887 -4.2225,-4.2176 0,-2.329 1.8906,-4.2183 4.2225,-4.2183 z m -17.9647,28.1226 c -2.3318,0 -4.2224,-1.8887 -4.2224,-4.2177 0,-2.3289 1.8906,-4.2188 4.2224,-4.2188 2.3319,0 4.2225,1.8887 4.2225,4.2188 0,2.3301 -1.8906,4.2177 -4.2225,4.2177 z m 7.2395,-8.5593 c 0.8216,-2.4049 2.1611,-4.2296 4.2088,-5.6628 1.6034,-1.2154 3.6595,-2.164 5.7309,-2.5205 0.4444,-0.086 0.875,-0.1418 1.2837,-0.1655 2.7205,-0.1916 5.0126,-1.9291 6.0021,-4.3393 0.3607,-0.7907 1.171,-1.3418 2.1136,-1.3418 0.9989,0 1.8502,0.6199 2.1735,1.4866 0.1032,0.344 0.0694,0.8441 0.0474,1.0861 -0.732,4.9841 -5.0369,8.8097 -10.2375,8.8097 -0.0896,0 -0.1779,0 -0.2669,-0.0035 h -0.0309 c -0.0646,0 -0.1109,0.0012 -0.1572,0.0024 -0.0433,0.0012 -0.0872,0.0012 -0.1417,0.0012 -3.8772,0 -7.0212,3.1404 -7.0212,7.0135 0,0.3191 0.0219,0.6329 0.0629,0.9402 0.0112,0.0925 0.0201,0.1821 0.0261,0.2657 0.0059,0.1133 0.0095,0.2266 0.0118,0.3411 0,0.1827 -0.0095,0.3269 -0.0184,0.4206 -0.2426,2.0501 -0.9153,3.9727 -1.9415,5.6064 -0.2604,-0.3476 -0.5031,-0.7083 -0.7273,-1.0802 -1.3982,-2.17 -2.527,-5.4035 -1.1176,-10.8586 h -6e-4 z m 4.4182,21.4064 c -0.2913,1.184 -1.8787,1.6841 -2.581,1.6841 -0.7024,0 -2.2898,-0.5013 -2.5799,-1.6841 -0.4823,-1.9606 1.5572,-5.028 2.5799,-6.2097 1.0232,1.1817 3.0621,4.2491 2.581,6.2097 z m 6.2405,6.836 c -2.301,-0.0361 -4.1566,-1.9095 -4.1566,-4.2165 0,-2.3069 1.8544,-4.1803 4.1554,-4.2165 2.3005,0.0368 4.1548,1.9108 4.1548,4.2165 0,2.3058 -1.8537,4.1792 -4.1542,4.2165 z"
         style="fill:#02489c;fill-opacity:1;stroke-width:0.264583px"
         id="path1346" />
      <path
         d="m 58.0318,-33.7394 c 1.6035,-1.2143 3.6595,-2.164 5.731,-2.5205 0.3773,-0.073 0.7433,-0.1222 1.0956,-0.1513 3.7959,-0.0937 6.8456,-3.1956 6.8456,-7.0105 0,-3.8149 -3.144,-7.0134 -7.0212,-7.0134 -0.0273,0 -0.0551,0 -0.0824,0.0012 -0.0178,0 -0.035,-0.0012 -0.0522,-0.0012 -2.988,0 -5.3667,1.4456 -6.5537,4.4917 -0.3144,0.964 -0.3661,1.7743 -0.3322,2.5828 0.0024,0.2954 0.0231,0.5861 0.0611,0.8714 0.0741,0.8353 0.1726,1.7233 0.1139,2.8225 -0.388,5.1027 -5.7595,8.936 -10.2957,8.936 -0.0534,0 0.0492,0 0,0 -0.1216,0 -0.2355,0.0012 -0.3553,-0.0035 -0.1027,-0.0065 -0.2059,-0.0118 -0.3097,-0.0142 -2.8741,-0.2776 -5.4705,-1.4967 -7.472,-3.3415 1.8229,-1.4463 4.1305,-2.3106 6.6403,-2.3106 0.0837,0 0.1667,0 0.2498,0.0024 0.1394,0.0077 0.2806,0.0131 0.4223,0.0131 3.8772,0 7.0212,-3.1404 7.0212,-7.0135 0,-0.3161 -0.0208,-0.6252 -0.0611,-0.9301 l -0.0083,-0.0558 c -0.0243,-0.296 -0.0225,-0.5445 -0.0225,-0.8477 0,-5.884 4.6738,-10.6776 10.5163,-10.8793 h 0.0534 c 0.0937,0 0.1679,-0.0024 0.2426,-0.003 0.0759,-0.0024 0.1531,-0.0035 0.2515,-0.0035 3.8772,0 7.0212,-3.1405 7.0212,-7.0135 0,-3.873 -3.1446,-7.0105 -7.0218,-7.0105 -2.9962,0 -5.5535,1.8733 -6.5614,4.5125 h -0.0018 l -0.0071,0.0237 c -0.0267,0.0706 -0.0522,0.143 -0.0777,0.2148 -0.3797,0.9224 -1.289,1.5738 -2.3503,1.5738 -1.0612,0 -2.0151,-0.6816 -2.377,-1.6403 -0.9687,-2.7186 -3.5651,-4.6631 -6.6172,-4.6631 -3.052,0 -5.5399,1.8638 -6.5537,4.4911 h -0.0041 c -0.0065,0.022 -0.0136,0.0433 -0.0201,0.0653 -0.0178,0.0492 -0.0356,0.0967 -0.0522,0.1447 -0.3708,0.9343 -1.2837,1.5945 -2.3503,1.5945 -1.0666,0 -2.0335,-0.7005 -2.3817,-1.6787 -0.9818,-2.6938 -3.567,-4.6175 -6.6024,-4.6175 -3.8772,0 -7.0212,3.1392 -7.0212,7.0122 0,3.8731 3.1434,7.0123 7.0212,7.0123 2.8687,0 5.3353,-1.7185 6.425,-4.1803 h 6e-4 c 0.4259,-0.8809 1.2878,-1.5162 2.3461,-1.5162 1.1295,0 2.0869,0.7136 2.4167,1.7001 0.0896,0.2681 0.0694,0.5481 0.0659,0.7385 -0.388,5.104 -4.7854,8.9361 -10.1421,8.9361 h -0.1531 c -0.1773,0.0012 -0.3363,0.0024 -0.5238,-0.0107 h -0.0385 c -0.1103,-0.0053 -0.2219,-0.0077 -0.334,-0.0077 -3.8784,0.0012 -7.0212,3.1404 -7.0212,7.0134 0,3.8731 3.1434,7.0123 7.0212,7.0123 0.5114,0 1.0097,-0.0546 1.489,-0.1578 0.3025,-0.051 0.7563,-0.0937 1.27,-0.0587 0.3636,0.035 0.7528,0.1056 1.1496,0.2331 1.4137,0.5185 2.6914,1.3169 3.7669,2.3278 -1.8555,1.9955 -4.3832,3.2644 -7.3516,3.3266 -0.1833,0 -0.2563,-0.01 -0.3862,-0.01 -3.8772,0 -7.0211,3.1392 -7.0211,7.0122 0,3.8731 3.1434,7.0135 7.0211,7.0135 2.905,0 5.3982,-1.7624 6.4654,-4.2764 h 0.0018 c 0.395,-0.9806 1.3732,-1.6752 2.5163,-1.6752 0.9456,0 1.7761,0.4757 2.259,1.1935 0.9402,2.7667 3.5622,4.7575 6.6492,4.7575 0.0035,0 0.0071,-0.0012 0.0113,-0.0012 0.0201,0 0.0403,0.0012 0.0605,0.0012 2.9405,0 5.4586,-1.8057 6.5045,-4.3678 0.4176,-0.9325 1.3697,-1.5838 2.4778,-1.5838 1.1081,0 2.1219,0.6946 2.5164,1.6752 h 5e-4 c 1.0672,2.5128 3.5605,4.2764 6.4654,4.2764 3.8772,0 7.0211,-3.1404 7.0211,-7.0135 0,-3.873 -3.1439,-7.0122 -7.0211,-7.0122 -3.0236,0 -5.4587,1.792 -6.5887,4.5854 -0.4331,0.8614 -1.3401,1.4552 -2.3889,1.4552 -0.9918,0 -1.8555,-0.5315 -2.3123,-1.3181 0.1032,-0.6472 0.2444,-1.3288 0.4307,-2.0502 0.8216,-2.406 2.161,-4.2307 4.2088,-5.6639 z m 6.651,-13.8994 c 2.3319,0 4.2225,1.8888 4.2225,4.2177 0,2.3289 -1.8906,4.2177 -4.2225,4.2177 -2.3319,0 -4.2224,-1.8888 -4.2224,-4.2177 0,-2.3289 1.8905,-4.2177 4.2224,-4.2177 z M 46.7182,-67.3255 c 2.3319,0 4.2225,1.8888 4.2225,4.2183 0,2.3295 -1.8906,4.2177 -4.2225,4.2177 -2.3319,0 -4.2224,-1.8888 -4.2224,-4.2177 0,-2.3289 1.8905,-4.2183 4.2224,-4.2183 z m -17.9646,28.1227 c -2.3319,0 -4.2224,-1.8888 -4.2224,-4.2177 0,-2.3289 1.8905,-4.2189 4.2224,-4.2189 2.3319,0 4.2225,1.8888 4.2225,4.2189 0,2.3301 -1.8906,4.2177 -4.2225,4.2177 z m 7.2395,-8.5594 c 0.8216,-2.4048 2.161,-4.2295 4.2088,-5.6627 1.6034,-1.2155 3.6595,-2.164 5.7309,-2.5205 0.4443,-0.086 0.875,-0.1418 1.2837,-0.1655 2.7205,-0.1916 5.0126,-1.9291 6.0021,-4.3393 0.3606,-0.7908 1.171,-1.3418 2.1136,-1.3418 0.9989,0 1.8502,0.6199 2.1735,1.4865 0.1032,0.3441 0.0694,0.8442 0.0474,1.0862 -0.732,4.9841 -5.0369,8.8097 -10.2375,8.8097 -0.0896,0 -0.178,0 -0.267,-0.0035 h -0.0308 c -0.0647,0 -0.1109,0.0012 -0.1572,0.0024 -0.0433,0.0012 -0.0872,0.0012 -0.1418,0.0012 -3.8772,0 -7.0211,3.1404 -7.0211,7.0134 0,0.3192 0.0219,0.633 0.0628,0.9403 0.0113,0.0925 0.0202,0.1821 0.0261,0.2657 0.0059,0.1133 0.0095,0.2266 0.0119,0.3411 0,0.1827 -0.0095,0.3269 -0.0184,0.4206 -0.2426,2.0501 -0.9153,3.9727 -1.9415,5.6064 -0.2605,-0.3477 -0.5031,-0.7083 -0.7273,-1.0803 -1.3982,-2.1699 -2.5271,-5.4035 -1.1176,-10.8586 h -6e-4 z m 4.4182,21.4064 c -0.2913,1.1841 -1.8787,1.6841 -2.5811,1.6841 -0.7023,0 -2.2897,-0.5012 -2.5798,-1.6841 -0.4823,-1.9605 1.5572,-5.028 2.5798,-6.2096 1.0233,1.1816 3.0622,4.2491 2.5811,6.2096 z m 6.2405,6.8361 c -2.3011,-0.0362 -4.1566,-1.9095 -4.1566,-4.2165 0,-2.307 1.8544,-4.1803 4.1554,-4.2165 2.3005,0.0368 4.1548,1.9107 4.1548,4.2165 0,2.3058 -1.8538,4.1791 -4.1542,4.2165 z"
         style="fill:#025ac1;fill-opacity:1;stroke-width:0.264583px"
         id="path1347" />
      <path
         d="m 56.3,-32.0015 c 1.6034,-1.2143 3.6594,-2.164 5.7309,-2.5206 0.3773,-0.0729 0.7433,-0.1222 1.0957,-0.1512 3.7959,-0.0938 6.8455,-3.1956 6.8455,-7.0105 0,-3.8149 -3.1439,-7.0135 -7.0211,-7.0135 -0.0273,0 -0.0552,0 -0.0825,0.0012 -0.0178,0 -0.035,-0.0012 -0.0522,-0.0012 -2.988,0 -5.3667,1.4457 -6.5537,4.4918 -0.3144,0.9639 -0.366,1.7742 -0.3322,2.5828 0.0024,0.2954 0.0231,0.5861 0.0611,0.8714 0.0741,0.8352 0.1726,1.7233 0.1139,2.8225 -0.388,5.1027 -5.7594,8.936 -10.2957,8.936 -0.0534,0 0.0493,0 0,0 -0.1216,0 -0.2355,0.0012 -0.3553,-0.0035 -0.1026,-0.0065 -0.2058,-0.0119 -0.3097,-0.0142 -2.874,-0.2777 -5.4705,-1.4967 -7.472,-3.3416 1.823,-1.4462 4.1305,-2.3105 6.6404,-2.3105 0.0836,0 0.1667,0 0.2497,0.0024 0.1394,0.0077 0.2806,0.0131 0.4224,0.0131 3.8772,0 7.0211,-3.1405 7.0211,-7.0135 0,-0.3162 -0.0207,-0.6252 -0.0611,-0.9301 l -0.0083,-0.0558 c -0.0243,-0.296 -0.0225,-0.5446 -0.0225,-0.8477 0,-5.884 4.6739,-10.6777 10.5163,-10.8794 h 0.0534 c 0.0938,0 0.1679,-0.0024 0.2426,-0.003 0.076,-0.0024 0.1531,-0.0035 0.2516,-0.0035 3.8771,0 7.0211,-3.1404 7.0211,-7.0134 0,-3.8731 -3.1445,-7.0105 -7.0217,-7.0105 -2.9963,0 -5.5536,1.8733 -6.5615,4.5125 h -0.0018 l -0.0071,0.0237 c -0.0267,0.0706 -0.0522,0.143 -0.0777,0.2148 -0.3796,0.9224 -1.289,1.5737 -2.3502,1.5737 -1.0613,0 -2.0152,-0.6816 -2.377,-1.6402 -0.9687,-2.7186 -3.5652,-4.6632 -6.6172,-4.6632 -3.0521,0 -5.54,1.8639 -6.5537,4.4912 h -0.0041 c -0.0065,0.0219 -0.0137,0.0433 -0.0202,0.0652 -0.0178,0.0493 -0.0356,0.0967 -0.0522,0.1448 -0.3708,0.9343 -1.2837,1.5945 -2.3503,1.5945 -1.0666,0 -2.0335,-0.7006 -2.3817,-1.6788 -0.9818,-2.6937 -3.5669,-4.6175 -6.6024,-4.6175 -3.8772,0 -7.0211,3.1393 -7.0211,7.0123 0,3.873 3.1434,7.0123 7.0211,7.0123 2.8688,0 5.3353,-1.7185 6.425,-4.1803 h 6e-4 c 0.4259,-0.8809 1.2879,-1.5163 2.3461,-1.5163 1.1295,0 2.0869,0.7137 2.4168,1.7002 0.0895,0.2681 0.0694,0.5481 0.0658,0.7385 -0.388,5.1039 -4.7854,8.936 -10.142,8.936 h -0.1531 c -0.1774,0.0012 -0.3364,0.0024 -0.5238,-0.0106 h -0.0386 c -0.1103,-0.0053 -0.2218,-0.0077 -0.3339,-0.0077 -3.8784,0.0012 -7.0212,3.1404 -7.0212,7.0134 0,3.873 3.1434,7.0123 7.0212,7.0123 0.5113,0 1.0096,-0.0546 1.4889,-0.1578 0.3025,-0.051 0.7563,-0.0937 1.27,-0.0587 0.3637,0.035 0.7528,0.1056 1.1497,0.2331 1.4136,0.5185 2.6914,1.3169 3.7668,2.3277 -1.8555,1.9956 -4.3832,3.2644 -7.3516,3.3267 -0.1833,0 -0.2562,-0.0101 -0.3861,-0.0101 C 23.144,-29.0123 20,-25.873 20,-22 c 0,3.873 3.1434,7.0135 7.0212,7.0135 2.9049,0 5.3981,-1.7625 6.4653,-4.2765 h 0.0018 c 0.3951,-0.9805 1.3733,-1.6752 2.5164,-1.6752 0.9455,0 1.776,0.4758 2.2589,1.1936 0.9402,2.7667 3.5622,4.7575 6.6492,4.7575 0.0035,0 0.0071,-0.0012 0.0113,-0.0012 0.0202,0 0.0403,0.0012 0.0605,0.0012 2.9405,0 5.4587,-1.8058 6.5045,-4.3678 0.4176,-0.9325 1.3697,-1.5839 2.4778,-1.5839 1.1081,0 2.1219,0.6947 2.5164,1.6753 h 6e-4 c 1.0671,2.5128 3.5604,4.2764 6.4653,4.2764 3.8772,0 7.0212,-3.1405 7.0212,-7.0135 0,-3.873 -3.144,-7.0123 -7.0212,-7.0123 -3.0236,0 -5.4587,1.7921 -6.5887,4.5855 -0.4331,0.8613 -1.3401,1.4551 -2.3888,1.4551 -0.9919,0 -1.8556,-0.5315 -2.3124,-1.3181 0.1033,-0.6471 0.2444,-1.3287 0.4307,-2.0501 0.8216,-2.406 2.1611,-4.2307 4.2088,-5.6639 z m 6.651,-13.8994 c 2.3319,0 4.2224,1.8888 4.2224,4.2177 0,2.3289 -1.8905,4.2177 -4.2224,4.2177 -2.3319,0 -4.2225,-1.8888 -4.2225,-4.2177 0,-2.3289 1.8906,-4.2177 4.2225,-4.2177 z M 44.9864,-65.5876 c 2.3319,0 4.2224,1.8888 4.2224,4.2183 0,2.3295 -1.8905,4.2177 -4.2224,4.2177 -2.3319,0 -4.2225,-1.8888 -4.2225,-4.2177 0,-2.3289 1.8906,-4.2183 4.2225,-4.2183 z m -17.9646,28.1227 c -2.3319,0 -4.2225,-1.8888 -4.2225,-4.2177 0,-2.3289 1.8906,-4.2189 4.2225,-4.2189 2.3318,0 4.2224,1.8888 4.2224,4.2189 0,2.3301 -1.8906,4.2177 -4.2224,4.2177 z m 7.2394,-8.5594 c 0.8216,-2.4048 2.1611,-4.2295 4.2088,-5.6627 1.6034,-1.2155 3.6595,-2.164 5.731,-2.5205 0.4443,-0.0861 0.8749,-0.1418 1.2837,-0.1656 2.7204,-0.1916 5.0125,-1.9291 6.002,-4.3392 0.3607,-0.7908 1.171,-1.3419 2.1136,-1.3419 0.9989,0 1.8502,0.6199 2.1735,1.4866 0.1032,0.3441 0.0694,0.8441 0.0474,1.0862 -0.732,4.9841 -5.0369,8.8096 -10.2375,8.8096 -0.0895,0 -0.1779,0 -0.2669,-0.0035 h -0.0309 c -0.0646,0 -0.1109,0.0012 -0.1572,0.0024 -0.0433,0.0012 -0.0872,0.0012 -0.1417,0.0012 -3.8772,0 -7.0212,3.1405 -7.0212,7.0135 0,0.3191 0.0219,0.6329 0.0629,0.9402 0.0112,0.0926 0.0201,0.1821 0.0261,0.2658 0.0059,0.1133 0.0095,0.2266 0.0118,0.3411 0,0.1827 -0.0095,0.3268 -0.0184,0.4206 -0.2426,2.0501 -0.9153,3.9726 -1.9415,5.6063 -0.2604,-0.3476 -0.503,-0.7083 -0.7273,-1.0802 -1.3982,-2.1699 -2.527,-5.4035 -1.1176,-10.8586 h -6e-4 z m 4.4182,21.4064 c -0.2912,1.184 -1.8787,1.6841 -2.581,1.6841 -0.7024,0 -2.2898,-0.5013 -2.5799,-1.6841 -0.4822,-1.9606 1.5572,-5.028 2.5799,-6.2097 1.0233,1.1817 3.0621,4.2491 2.581,6.2097 z m 6.2405,6.8361 c -2.301,-0.0362 -4.1566,-1.9095 -4.1566,-4.2165 0,-2.307 1.8544,-4.1803 4.1554,-4.2165 2.3005,0.0368 4.1548,1.9107 4.1548,4.2165 0,2.3058 -1.8537,4.1791 -4.1542,4.2165 z"
         style="fill:#036dea;fill-opacity:1;stroke-width:0.264583px"
         id="path1348" />
    </g>
  </g>
</svg>
